<?xml version="1.0" standalone="no"?>
<!DOCTYPE svg PUBLIC "-//W3C//DTD SVG 1.1//EN" "http://www.w3.org/Graphics/SVG/1.1/DTD/svg11.dtd" >
<svg xmlns="http://www.w3.org/2000/svg">
<metadata>
Created by FontForge 20120731 at Fri Jul 31 09:37:07 2015
 By Ads
</metadata>
<defs>
<font id="iconfont" horiz-adv-x="1024" >
  <font-face 
    font-family="iconfont"
    font-weight="500"
    font-stretch="normal"
    units-per-em="1024"
    panose-1="2 0 6 3 0 0 0 0 0 0"
    ascent="812"
    descent="-212"
    x-height="792"
    bbox="-2 -224 1050 812"
    underline-thickness="50"
    underline-position="-100"
    unicode-range="U+0078-F02B4"
  />
<missing-glyph horiz-adv-x="374" 
d="M34 0v682h272v-682h-272zM68 34h204v614h-204v-614z" />
    <glyph glyph-name=".notdef" horiz-adv-x="374" 
d="M34 0v682h272v-682h-272zM68 34h204v614h-204v-614z" />
    <glyph glyph-name=".null" horiz-adv-x="0" 
 />
    <glyph glyph-name="nonmarkingreturn" horiz-adv-x="341" 
 />
    <glyph glyph-name="x" unicode="x" horiz-adv-x="1001" 
d="M281 543q-27 -1 -53 -1h-83q-18 0 -36.5 -6t-32.5 -18.5t-23 -32t-9 -45.5v-76h912v41q0 16 -0.5 30t-0.5 18q0 13 -5 29t-17 29.5t-31.5 22.5t-49.5 9h-133v-97h-438v97zM955 310v-52q0 -23 0.5 -52t0.5 -58t-10.5 -47.5t-26 -30t-33 -16t-31.5 -4.5q-14 -1 -29.5 -0.5
t-29.5 0.5h-32l-45 128h-439l-44 -128h-29h-34q-20 0 -45 1q-25 0 -41 9.5t-25.5 23t-13.5 29.5t-4 30v167h911zM163 247q-12 0 -21 -8.5t-9 -21.5t9 -21.5t21 -8.5q13 0 22 8.5t9 21.5t-9 21.5t-22 8.5zM316 123q-8 -26 -14 -48q-5 -19 -10.5 -37t-7.5 -25t-3 -15t1 -14.5
t9.5 -10.5t21.5 -4h37h67h81h80h64h36q23 0 34 12t2 38q-5 13 -9.5 30.5t-9.5 34.5q-5 19 -11 39h-368zM336 498v228q0 11 2.5 23t10 21.5t20.5 15.5t34 6h188q31 0 51.5 -14.5t20.5 -52.5v-227h-327z" />
    <glyph glyph-name="uni3433" unicode="&#x3433;" horiz-adv-x="1000" 
d="M851 612l-50 50q-19 19 -44 25.5t-50.5 0t-43.5 -25.5l-37 -36l189 -189l36 36q19 19 26 44t0 50.5t-26 44.5zM325 136v51l-69 68l-5 -5q-8 -7 -13.5 -16.5t-9 -19t-5.5 -20.5l-14 -49l-10 -6l-35 -165l187 32l9 18l60 19l1 4q4 2 7 5l6 4l6 6l5 5l-69 69h-51zM284 283
l41 -41h32v-73h74v-33l41 -42l322 321l-189 189z" />
    <glyph glyph-name="uni3435" unicode="&#x3435;" horiz-adv-x="1000" 
d="M515 317zM408 318v3q0 45 31.5 76.5t76 31.5t76 -31.5t31.5 -76.5v-3v-4q0 -13 -3 -25t-8.5 -22.5t-12.5 -20t-16.5 -16.5t-20 -12.5t-22.5 -8.5t-25 -3q-44 0 -75.5 31.5t-31.5 76.5v4zM186 317zM79 318v1v2q0 45 31.5 76.5t76 31.5t76 -31.5t31.5 -76.5v-3v-4
q0 -29 -14.5 -54t-39 -39.5t-54.5 -14.5q-44 0 -75.5 31.5t-31.5 76.5v2v2zM843 317zM736 317v4q0 45 31.5 76.5t76 31.5t76 -31.5t31.5 -76.5v-4v-3q0 -29 -14.5 -54t-39 -39.5t-54.5 -14.5q-44 0 -75.5 31.5t-31.5 76.5v3z" />
    <glyph glyph-name="uni3473" unicode="&#x3473;" horiz-adv-x="1000" 
d="M316 437h-79q-8 0 -15.5 -3t-13 -8.5t-8.5 -13t-3 -15.5q0 -16 11.5 -27.5t28.5 -11.5h79q17 0 28.5 11.5t11.5 28t-11.5 28t-28.5 11.5zM792 437h-79q-11 0 -20 -5.5t-14.5 -14.5t-5.5 -20q0 -16 11.5 -27.5t28.5 -11.5h79q17 0 28.5 11.5t11.5 28t-11.5 28t-28.5 11.5z
M872 754h-715q-32 0 -55.5 -23t-23.5 -56v-555q0 -33 23.5 -56.5t55.5 -23.5h119v-114q-3 -20 11 -33q5 -5 11.5 -8t13.5 -3q1 0 2 -0.5t2 -0.5q10 0 18.5 4.5t13.5 12.5l195 142h329q32 0 55.5 23.5t23.5 56.5v555q0 33 -23.5 56t-55.5 23zM872 159q0 -16 -12 -27.5
t-28 -11.5h-290q-9 1 -18 -2t-15 -9l-153 -112v83q0 16 -11.5 28t-28.5 12h-119q-16 0 -28 11.5t-12 27.5v476q0 11 5.5 20t14.5 14.5t20 5.5h635q16 0 28 -11.5t12 -28.5v-476zM554 437h-79q-11 0 -20 -5.5t-14.5 -14.5t-5.5 -20q0 -16 11.5 -27.5t28.5 -11.5h79
q17 0 28.5 11.5t11.5 27.5q0 11 -5.5 20t-14.5 14.5t-20 5.5z" />
    <glyph glyph-name="uni3474" unicode="&#x3474;" horiz-adv-x="1000" 
d="M415 -1q16 0 28 11.5t12 28.5v477q0 11 -5.5 20t-14.5 14.5t-20 5.5q-16 0 -28 -12t-12 -28v-477q0 -11 5.5 -20t14.5 -14.5t20 -5.5zM912 675h-338v40q0 10 -5.5 19.5t-14.5 14.5t-20 5h-40q-8 0 -15 -3t-12.5 -8.5t-8.5 -12.5t-3 -15v-40h-338q-17 0 -28.5 -11.5
t-11.5 -28t11.5 -28.5t28.5 -12h59v-636q0 -32 23.5 -55.5t56.5 -23.5h517q21 0 39.5 10.5t29 29t10.5 39.5v636h60q11 0 20 5.5t14.5 14.5t5.5 20q0 17 -12 28.5t-28 11.5zM773 -1q0 -16 -12 -28t-28 -12h-437q-17 0 -28.5 12t-11.5 28v596h517v-596zM614 -1
q16 0 27.5 11.5t11.5 28.5v477q0 8 -3 15.5t-8 12.5t-12.5 8.5t-15.5 3.5q-11 0 -20 -5.5t-14.5 -14.5t-5.5 -20v-477q0 -27 26 -37q7 -3 14 -3z" />
    <glyph glyph-name="uni348C" unicode="&#x348c;" horiz-adv-x="1000" 
d="M847 312l106 -18l-19 -106l-107 18q-15 -44 -44 -83l78 -77l-77 -76l-77 77q-19 -14 -40 -24.5t-43 -18.5l19 -108l-106 -18l-19 106q-34 -1 -66 5q-13 2 -28 6l-45 -97l-98 46l45 96q-11 6 -20.5 13.5t-18.5 15.5t-17 17l-16 18l-90 -52l-54 93l88 51q-24 61 -24 126
l-98 17l18 106l98 -17q16 47 46 89l-70 69l76 77l69 -70q41 30 89 46l-17 97l107 19l17 -98h10h10q5 0 10 -1h10l10 -2l10 -2q10 -1 19 -3.5t19 -5.5l42 91l98 -45l-43 -93q39 -27 70 -67l91 52l54 -93l-92 -53q22 -60 20 -123zM539 479q-43 7 -83 -7.5t-68 -47.5t-35 -76
q-12 -65 26.5 -119.5t103.5 -66t119.5 26.5t66 103.5t-26.5 120t-103 66.5zM514 221q-20 0 -38 7.5t-31.5 21t-21 31.5t-7.5 38q0 41 29 70t69 29q11 0 20.5 -2t18.5 -6t17 -9t14.5 -12t12 -15t9 -16.5t5.5 -18.5t2 -20q0 -27 -13 -49.5t-36 -35.5t-50 -13z" />
    <glyph glyph-name="uni359A" unicode="&#x359a;" 
d="M685 377l-172 -169l-172 169q-4 5 -9.5 7t-11.5 2t-11.5 -2t-10 -6.5t-6.5 -10t-2 -11.5t2 -11.5t6 -9.5l194 -191q3 -4 7.5 -6t9 -2.5t9 0t9 2.5t7.5 6l194 191q8 9 8 21t-8 21q-5 5 -10.5 7t-11.5 2t-11.5 -2t-9.5 -7zM513 749q-72 0 -140.5 -22.5t-123 -64t-96 -96.5
t-64 -123t-22.5 -141q0 -91 35.5 -173.5t95 -142.5t142.5 -95t173.5 -35t173.5 35t142.5 95t95 142.5t35.5 173.5q0 61 -16 119t-45 107t-70 90t-90 70t-107 45t-119 16zM513.5 -89q-106.5 0 -196.5 52.5t-142 142.5t-52 196t52 196t142 142.5t196.5 52.5t196.5 -52.5
t142 -142.5t52 -196t-52 -196t-142 -142.5t-196.5 -52.5z" />
    <glyph glyph-name="uniE600" unicode="&#xe600;" 
d="M511 790q-185 0 -323 -121q-131 -115 -160 -288q-6 -41 -6 -82q0 -79 24.5 -154t70 -135.5t105.5 -105.5t135 -70t155 -25t155 25t135 70t105.5 105.5t70 135.5t24.5 154q0 183 -119 321q-115 133 -287 162q-42 8 -85 8zM513 -100q-109 0 -201.5 54t-146.5 146.5
t-54 201.5q0 82 32 156.5t85.5 128t128 85.5t156.5 32t156 -32t128 -85.5t86 -128t32 -156.5q0 -47 -10.5 -92t-30.5 -84.5t-47.5 -74.5t-62.5 -62.5t-74.5 -47t-84.5 -30.5t-92 -11zM627 509l-4 -4l-114 -114l-115 115q-13 13 -32 13t-33 -13q-8 -9 -11.5 -21t0 -23.5
t11.5 -20.5l4 -4l112 -111l-114 -114q-1 -1 -2.5 -1.5t-1.5 -1.5q-14 -14 -14 -33t13.5 -32t32.5 -13t32 13l118 118l117 -117q2 -2 3 -4q14 -14 33 -14t32 14q7 6 10.5 15t3.5 17.5t-3.5 17t-10.5 15.5l-120 120l118 118h-1q14 13 14 32t-13.5 32.5t-32.5 13.5t-32 -13z
" />
    <glyph glyph-name="uniE601" unicode="&#xe601;" 
d="M902 283q2 2 3.5 4.5t2 5.5t0.5 6q0 9 -6 15v-31zM902 314l-400 418q-9 9 -20.5 12t-23.5 -0.5t-20 -12.5q-13 -14 -13.5 -33.5t13.5 -32.5l350 -366l-350 -366q-9 -9 -12 -21t0 -24t12 -21q6 -7 14.5 -10.5t17 -4t17.5 3t15 10.5l400 417v31zM592 283q2 2 3 4.5t2 5.5
t1 5q0 5 -1.5 9t-4.5 7v-31zM592 314l-400 418q-14 13 -32.5 12.5t-32 -14t-13.5 -33t13 -33.5l350 -366l-350 -365q-13 -14 -13 -33.5t13.5 -33t32 -14t32.5 12.5l400 418v31z" />
    <glyph glyph-name="uniE602" unicode="&#xe602;" 
d="M513 -147h-2q-26 0 -44.5 18.5t-18.5 44.5v768q0 13 5 24.5t13.5 20t20 13.5t24.5 5h2q13 0 24.5 -5t20 -13.5t13.5 -20t5 -24.5v-768q0 -26 -18.5 -44.5t-44.5 -18.5zM65 299v2q0 26 18.5 44.5t44.5 18.5h768q26 0 44.5 -18.5t18.5 -44.5v-2q0 -9 -2 -17t-6.5 -15
t-10 -13t-12.5 -10t-15.5 -6t-16.5 -2h-768q-17 0 -31.5 8.5t-23 23t-8.5 31.5z" />
    <glyph glyph-name="uniE603" unicode="&#xe603;" 
d="M812 36l-127 128q17 22 29.5 48t19 55.5t6.5 59.5q0 111 -79 190t-190 79t-190 -79t-79 -190t79 -190t190 -79q94 0 168 59l127 -127q10 -10 23.5 -10t23 9.5t9.5 23t-10 23.5zM327 183q-59 60 -59 144t59.5 144t143.5 60q41 0 78 -15.5t66 -44.5q60 -60 60 -144
t-60 -143.5t-144 -59.5t-144 59z" />
    <glyph glyph-name="uniE604" unicode="&#xe604;" 
d="M909 470v-567h-794v794h675v80h-695q-17 0 -30.5 -8t-21.5 -22t-8 -30v-834q0 -25 17.5 -42.5t42.5 -17.5h834q25 0 42.5 17.5t17.5 42.5v587h-80zM790 268.5q14 13.5 14 32.5t-14 33t-33 14h-200v200q0 19 -13.5 32.5t-33 13.5t-33 -13.5t-13.5 -32.5v-200h-200
q-19 0 -32.5 -14t-13.5 -33t13 -33q5 -4 10 -7t11 -4.5t12 -1.5h200v-200q0 -20 13.5 -33.5t33 -13.5t33 13.5t13.5 33.5v200h200q19 0 33 13.5z" />
    <glyph glyph-name="uniE605" unicode="&#xe605;" 
d="M481 49l-38 37l-365 365q-13 13 -13 31.5t13 31.5l38 37q8 9 19.5 12t23 0t19.5 -12l334 -333l334 333q13 13 31 13t31 -13l38 -37q13 -13 13 -31.5t-13 -31.5l-365 -365l-38 -37q-13 -13 -31 -13t-31 13z" />
    <glyph glyph-name="uniE606" unicode="&#xe606;" 
d="M930 265l-417 417l-1 -1l-1 1l-416 -417l62 -62l355 355l355 -355zM930 -84l-417 417l-1 -1l-1 1l-416 -417l62 -62l355 355l355 -355z" />
    <glyph glyph-name="uniE607" unicode="&#xe607;" 
d="M484 -25l337 207l-49 70l-288 -138l-284 128l-46 -69zM484 323l337 207l-49 71l-288 -139l-284 128l-46 -68z" />
    <glyph glyph-name="uniE608" unicode="&#xe608;" 
d="M496 -45q2 -3 6 -4.5t9 -1.5q8 0 15 6h-30zM526 -45l403 386q14 13 13.5 31.5t-14 31t-32 12.5t-32.5 -12l-353 -339l-354 339q-13 12 -32 12t-32.5 -12.5t-13.5 -31t13 -31.5l404 -386h30zM495 255q3 -3 7 -4.5t8 -1.5q9 0 15 6h-30zM525 255l404 386q13 13 12.5 31.5
t-13.5 31t-32 12.5t-32 -12l-354 -339l-353 339q-9 8 -20.5 11t-23.5 0t-20.5 -11.5t-12 -20t-0.5 -22.5t11 -20l404 -386h30z" />
    <glyph glyph-name="uniE609" unicode="&#xe609;" 
d="M903 244h-336v-336q0 -9 -3 -17.5t-8 -15t-12 -12t-15.5 -8t-17.5 -2.5q-23 0 -39.5 16t-16.5 39v336h-336q-23 0 -39.5 16.5t-16.5 39.5t16.5 39.5t39.5 16.5h336v336q0 15 7.5 28t20.5 20.5t28 7.5q23 0 39.5 -16.5t16.5 -39.5v-336h336q23 0 39.5 -16.5t16.5 -39.5
t-16.5 -39.5t-39.5 -16.5z" />
    <glyph glyph-name="uniE60A" unicode="&#xe60a;" 
d="M954 288q0 90 -35 172t-94 141t-141 94t-172 35q-72 0 -139.5 -22.5t-122 -63t-95 -95t-63 -122t-22.5 -139.5q0 -90 35 -172t94 -141t141 -94t172 -35t172 35t141 94t94 141t35 172zM158 288q0 96 47.5 177.5t129 129t177.5 47.5q72 0 137.5 -28t113 -75.5t75.5 -113
t28 -137.5q0 -96 -47.5 -177.5t-129 -129t-177.5 -47.5t-177.5 47.5t-129 129t-47.5 177.5zM518 319l-190 -160q-5 -4 -11 -5t-11.5 1t-9.5 7l-26 31q-6 7 -5 16.5t8 15.5l228 192q7 6 17 5q9 1 17 -5l228 -192q4 -3 6 -7t2.5 -8.5t-1 -9t-4.5 -7.5l-26 -31q-4 -5 -9.5 -7
t-11.5 -1t-11 5zM518 319z" />
    <glyph glyph-name="uniE60B" unicode="&#xe60b;" 
d="M512 579q8 0 15 -3l410 -181q15 -6 20.5 -21t-0.5 -29q-3 -7 -9 -12.5t-12.5 -8t-14.5 -2.5t-15 3l-394 174l-394 -174q-15 -6 -29.5 -0.5t-21.5 20.5q-3 7 -3 14.5t2.5 14.5t8 12.5t12.5 8.5l409 181q4 2 8 2.5t8 0.5zM512 278h6l4 -2q3 0 5 -1l410 -181q15 -6 20.5 -21
t-0.5 -29q-3 -8 -9 -13t-12.5 -7.5t-14.5 -2.5t-15 3l-394 174l-394 -174q-15 -6 -29.5 -0.5t-21.5 20.5q-3 7 -3 14.5t2.5 14.5t8 12.5t12.5 8.5l409 181q8 3 16 3z" />
    <glyph glyph-name="uniE60C" unicode="&#xe60c;" 
d="M923 491l-414 -393l-413 393l-84 -88q-13 -15 -12 -16l481 -428q6 -5 13 -7.5t15 -1.5q16 -1 27 9l488 433z" />
    <glyph glyph-name="uniE60D" unicode="&#xe60d;" 
d="M513 806q-188 0 -330 -123q-136 -116 -169 -290q-9 -47 -9 -95q0 -103 40.5 -197t108.5 -162t161.5 -108t197 -40t197.5 40t162 108t108 162t40 197.5t-40 197t-108 161.5t-162 108.5t-197 40.5zM513 -121q-114 0 -211 56t-153 152.5t-56 210.5q0 86 33.5 163.5
t89.5 133.5t133.5 89.5t163 33.5t163 -33.5t134 -89.5t89.5 -133.5t33 -163.5q0 -162 -109 -282q-106 -116 -261 -134q-25 -3 -49 -3zM835 496l-6 5q-11 11 -26 11t-26 -11l-333 -333l-212 212q-4 4 -8 6t-8.5 3.5t-9.5 1.5t-9.5 -1.5t-8.5 -3.5t-8 -6l-6 -6
q-10 -10 -10 -25.5t10 -25.5l236 -236l2 -2l6 -6q7 -7 16.5 -9.5t19 0t16.5 9.5l365 365q10 11 10 26t-10 26z" />
    <glyph glyph-name="uniE60E" unicode="&#xe60e;" 
d="M814 509h-604q-4 0 -7 2t-5 5.5t-2 7.5q0 6 4 10.5t10 4.5h604q4 0 7 -2t5 -5.5t2 -7.5q-2 -13 -14 -15zM601 515q-3 16 -11.5 29.5t-20 23t-26.5 15t-31 5.5q-32 0 -57.5 -20.5t-31.5 -52.5l-29 6q6 27 23 49t42 34.5t53 12.5q43 0 76 -27t42 -69zM708 -51h-392
q-17 0 -29.5 12.5t-13.5 30.5l-30 504q-1 6 3 10.5t10 4.5q3 0 6 -1t5 -2.5t3.5 -4.5t1.5 -6l30 -503q0 -7 4.5 -11.5t9.5 -4.5h392q5 0 9.5 4.5t4.5 11.5l30 503q1 6 5.5 10t10.5 4q4 0 7 -2t5 -5.5t1 -7.5l-30 -504q0 -5 -1.5 -10t-3.5 -9t-5 -8t-7 -7l-8 -4
q-4 -3 -8.5 -4t-9.5 -1zM402 56q-6 0 -10 4t-5 10l-19 346q0 6 4 10.5t10 4.5q2 1 5 0t5 -3t3.5 -4.5t1.5 -5.5l19 -347q0 -3 -1 -5.5t-2.5 -4.5t-4 -3.5t-5.5 -1.5h-1v0zM622 56h-1q-6 0 -10 4.5t-3 10.5l19 347q0 6 4.5 10t10.5 3q3 0 6 -1t4.5 -3.5t2.5 -5t1 -5.5
l-19 -346q0 -4 -2.5 -7t-5.5 -5t-7 -2zM512 56q-6 0 -10.5 4t-4.5 10v347q0 6 4.5 10t10.5 4q4 0 7.5 -2t5.5 -5t2 -7v-347q0 -2 -1 -3.5t-1.5 -3t-2 -3t-3 -2.5t-3.5 -1.5t-4 -0.5z" />
    <glyph glyph-name="uniE60F" unicode="&#xe60f;" 
d="M512 -158q-91 0 -174 35.5t-142.5 95t-95 142.5t-35.5 174t35.5 173.5t95 142.5t142.5 95.5t174 35.5q61 0 119 -16t107 -45t90 -70t70 -90t45 -107t16 -119q0 -91 -35.5 -174t-95 -142.5t-142.5 -95t-174 -35.5zM512 655q-99 0 -183.5 -49t-133.5 -133.5t-49 -184
t49 -183.5t133.5 -133t183.5 -49q60 0 115.5 18.5t100.5 52.5t79 79t52.5 100.5t18.5 115.5q0 74 -29 142t-78 117t-117 78t-142 29zM512 116l-253 253l63 64l190 -190l190 190l63 -64z" />
    <glyph glyph-name="uniE610" unicode="&#xe610;" 
d="M514 812q-96 0 -177.5 -46.5t-128.5 -126t-47 -173.5q0 -66 40 -155t91 -165.5t118.5 -180t103.5 -174.5q36 69 105 174t119 180.5t89.5 165t39.5 155.5q0 57 -18 109.5t-50.5 95t-76 74.5t-97.5 49.5t-111 17.5zM514 269q-54 0 -100 26t-72.5 71t-26.5 98.5t26.5 98.5
t72.5 71t100 26q82 0 140 -57.5t58 -138t-58 -138t-140 -57.5zM513.5 551q-36.5 0 -62.5 -25t-26 -61t26 -61.5t62.5 -25.5t62.5 25.5t26 61.5t-26 61t-62.5 25z" />
    <glyph glyph-name="uniE611" unicode="&#xe611;" 
d="M512 812q-139 0 -257 -68.5t-186.5 -186.5t-68.5 -257t68.5 -257t186.5 -186.5t257 -68.5t257 68.5t186.5 186.5t68.5 257t-68.5 257t-186.5 186.5t-257 68.5zM762 442l-319 -320l-4 -5q-9 -10 -22.5 -10t-22.5 10l-159 158q-6 6 -8 14.5t0 16.5t8 14q10 10 23 10t23 -10
l135 -135l300 302q10 10 23 10t22.5 -9.5t9.5 -23t-9 -22.5z" />
    <glyph glyph-name="uniE612" unicode="&#xe612;" 
d="M512 -98q-11 14 -30 39.5t-67 96t-84.5 133t-67 133.5t-30.5 114q0 116 82 198t197 82t197 -82t82 -198q0 -124 -218 -433q-61 -86 -61 -83zM509 537q-49 0 -83.5 -35t-34.5 -84.5t34.5 -84t83.5 -34.5t84 34.5t35 84t-35 84.5t-84 35z" />
    <glyph glyph-name="uniE613" unicode="&#xe613;" 
d="M511 812q-104 0 -198.5 -41t-163 -109.5t-109 -163.5t-40.5 -199t41 -198.5t109.5 -163t163.5 -109t199 -40.5t198.5 41t163 109.5t109 163.5t40.5 199t-41 198.5t-109.5 163t-163.5 109t-199 40.5zM830 473l-386 -386q-8 -9 -20 -9t-20 9l-210 209q-8 8 -8 20t8 20
q6 5 13 7t14.5 0t12.5 -7l190 -189l365 366q5 5 10 7t10.5 2t10.5 -2t10 -7q8 -8 8 -19.5t-8 -20.5zM830 473z" />
    <glyph glyph-name="uniE614" unicode="&#xe614;" 
d="M512 300zM0 300q0 139 68.5 257t186.5 186.5t257 68.5t257 -68.5t186.5 -186.5t68.5 -257t-68.5 -257t-186.5 -186.5t-257 -68.5t-257 68.5t-186.5 186.5t-68.5 257zM320 364q-26 0 -45 -18.5t-19 -45.5q0 -10 3 -20t9 -18t14 -14t18 -9t20.5 -3t20 3t17.5 9t14 14t9 18
t3 20q0 27 -18.5 45.5t-45.5 18.5zM512 364q-17 0 -32 -8.5t-23.5 -23.5t-8.5 -32t8.5 -32t23.5 -23.5t32 -8.5q27 0 45.5 18.5t18.5 45.5t-18.5 45.5t-45.5 18.5zM704 364q-27 0 -45.5 -18.5t-18.5 -45.5t18.5 -45.5t45.5 -18.5q13 0 25 5t20.5 13.5t13.5 20.5t5 25
q0 17 -8.5 32t-23.5 23.5t-32 8.5z" />
    <glyph glyph-name="uniE615" unicode="&#xe615;" 
d="M508 -122q-116 0 -214 57.5t-155 155.5t-57 214t57 214t155 155.5t214 57.5q58 0 113.5 -15.5t102 -43t86 -67t67 -86.5t43 -102t15.5 -113q0 -177 -125 -302t-302 -125zM508 689q-104 0 -192.5 -51.5t-140 -140t-51.5 -192.5t51.5 -192.5t140 -140t192.5 -51.5
t192.5 51.5t140 140t51.5 192.5t-51.5 192.5t-140 140t-192.5 51.5zM496 105q-4 0 -7 1t-5.5 3t-4.5 4.5t-3 6t-1 6.5v389q0 6 2.5 11t7.5 8t11 3q9 0 15 -6.5t6 -15.5v-389q0 -9 -6 -15t-15 -6zM505 90q-7 0 -13 4l-205 147q-8 5 -9.5 13.5t4.5 16.5q3 4 8 6.5t11 2
t10 -3.5l206 -147q7 -5 8.5 -14t-3.5 -16q-3 -4 -7.5 -6.5t-9.5 -2.5zM512 97q-10 0 -16 8q-6 7 -5 16t7 14l196 161q4 4 9.5 4.5t11 -1.5t9.5 -6q5 -7 4.5 -16t-7.5 -14l-195 -161q-6 -5 -14 -5z" />
    <glyph glyph-name="uniE616" unicode="&#xe616;" 
d="M511 -114q-112 0 -207.5 55.5t-151 150.5t-55.5 208t55.5 208t151 150.5t208 55.5t208 -55.5t151 -150.5t55.5 -208q0 -160 -108 -279q-105 -115 -260 -133q-24 -2 -47 -2zM511 673q-101 0 -187 -50t-136 -136t-50 -187t50 -187t136 -136t187 -50q76 0 145 29.5t119 79.5
t79.5 119t29.5 145t-29.5 145t-79.5 119t-119 79.5t-145 29.5zM512 72l-179 170q-6 6 -6 14.5t6 14.5q3 3 6.5 4.5t7.5 1.5t8 -1.5t7 -4.5l129 -123v338q0 9 6 15t14.5 6t14.5 -6t6 -15v-339l131 122q6 6 14.5 6t14.5 -6.5t6 -14.5q0 -4 -1.5 -8t-4.5 -7z" />
    <glyph glyph-name="uniE617" unicode="&#xe617;" 
d="M768 -144h-575q-16 0 -30.5 4.5t-26.5 13.5t-21 21t-13.5 26.5t-4.5 29.5v639q0 40 28 68t68 28h447q13 0 22.5 -9.5t9.5 -22.5q0 -6 -2.5 -12t-7 -10.5t-10.5 -7t-12 -2.5h-447q-14 0 -23 -9.5t-9 -22.5v-639q0 -13 9 -22.5t23 -9.5h575q8 0 15.5 4.5t11.5 12t4 15.5
v511q0 7 3 13t7 10t10 6.5t12 2.5q9 0 16.5 -4t11.5 -11.5t4 -16.5v-511q0 -39 -28 -67t-67 -28zM580 367q-3 0 -6 0.5t-6 1.5t-5.5 3t-5.5 4q-9 9 -9 22.5t9 22.5l318 318q9 9 22.5 9t22.5 -9.5t9 -22.5t-9 -23l-318 -317q-9 -9 -22 -9zM448 367h-192q-13 0 -22 9t-9 22.5
t9 23t22 9.5h192q7 0 12.5 -3t10 -7t7 -10t2.5 -12q0 -14 -9.5 -23t-22.5 -9zM640 175h-384q-13 0 -22 9.5t-9 22.5t9 22.5t22 9.5h384q3 0 7 -1t7 -2.5t6 -3.5t5 -5t3.5 -6t2.5 -6.5t1 -7.5q0 -5 -2 -10t-4.5 -9t-6.5 -7t-9 -4.5t-10 -1.5zM640 175z" />
    <glyph glyph-name="uniE618" unicode="&#xe618;" horiz-adv-x="1025" 
d="M511 812q-83 0 -161 -26t-141 -73.5t-110.5 -110.5t-73 -141t-25.5 -162q0 -104 41 -198.5t109.5 -163t163.5 -109t199 -40.5t198.5 41t163 109.5t109 163.5t40.5 199t-41 198.5t-109.5 163t-163.5 109t-199 40.5zM759 97q8 -8 8 -19t-8 -19q-4 -4 -9 -6t-10 -2t-10 2
t-9 6l-209 209l-209 -209q-8 -8 -19 -8t-18.5 7.5t-7.5 19t7 18.5l209 210l-209 209q-8 7 -8 18.5t8 19t19 7.5t19 -8l209 -208l209 209q8 8 19 8t19 -8q5 -5 6.5 -12t0 -14t-6.5 -12l-209 -209zM759 97z" />
    <glyph glyph-name="uniE619" unicode="&#xe619;" 
d="M510 812q-139 0 -256 -68t-185.5 -185.5t-68.5 -256.5t68.5 -256.5t185.5 -185.5t256 -68q211 0 360.5 149.5t149.5 360.5q0 139 -68 256t-185.5 185.5t-256.5 68.5zM719 160q7 -6 10.5 -15t3.5 -18q0 -20 -14 -34t-34 -14q-9 0 -18 3.5t-15 10.5l-142 141l-141 -141
q-7 -7 -16 -10.5t-18 -3.5q-20 0 -34 14t-14 34q0 3 1 6v6q1 3 2.5 6t3 5.5t3.5 5t4 4.5l141 142l-141 141q-3 4 -5.5 7.5t-4.5 8t-3 9t-1 9.5q0 20 14 34t34 14t34 -14l141 -141l142 141q6 7 15 10.5t18 3.5q20 0 34 -14t14 -34q0 -6 -1.5 -12.5t-5 -11.5t-7.5 -10
l-141 -141z" />
    <glyph glyph-name="uniE61A" unicode="&#xe61a;" 
d="M151 663q120 119 288 144q69 9 134.5 1.5t128 -32.5t117.5 -66q82 -62 133.5 -149t66.5 -188q15 -103 -12 -202.5t-85 -177.5t-146 -131.5t-191 -68.5q-88 -12 -175.5 5.5t-162.5 63.5q-13 8 -16.5 22.5t4 27.5t22.5 17t28 -4q134 -82 289 -59q118 16 210 89t135.5 181
t26.5 226q-12 87 -56.5 161.5t-114.5 127.5q-47 35 -100.5 56.5t-110 28t-114.5 -1.5q-89 -12 -164.5 -58t-125 -113t-72.5 -152t-10 -173q13 -95 64 -175q9 -12 5.5 -27t-16 -23t-27.5 -5t-23 16q-60 93 -76 203q-14 102 11 200t86 180q23 30 49 56zM151 663zM553 269h223
q15 0 25.5 10.5t10.5 25.5q0 10 -5 18.5t-13 13.5t-18 5h-223l-1 221q0 15 -10.5 26t-25.5 11q-8 -1 -14.5 -3.5t-11.5 -7.5t-8 -12t-3 -14l1 -221h-221q-15 0 -26 -10.5t-11 -25.5t11 -26t26 -11h221l1 -224q0 -8 2.5 -14.5t8.5 -11.5q10 -11 25.5 -11t26 11t10.5 26z
M567 305z" />
    <glyph glyph-name="uniE61B" unicode="&#xe61b;" 
d="M455.5 7q-95.5 0 -177 47.5t-129 129t-47.5 177t47.5 177t129 129t176.5 47.5q72 0 137.5 -28t113 -75.5t75.5 -113t28 -137.5q0 -95 -47.5 -176.5t-129 -129t-177 -47.5zM455 627q-110 0 -188 -78t-78 -188.5t78 -188.5t188.5 -78t188.5 78t78 188q0 73 -35.5 134
t-97 97t-134.5 36zM868 -106q-10 0 -20 4t-18 12l-184 184q-16 16 -16 38t15.5 38t38 16t38.5 -16l184 -185q16 -15 16 -37.5t-16 -37.5q-5 -5 -11 -9t-13 -5.5t-14 -1.5z" />
    <glyph glyph-name="uniE61C" unicode="&#xe61c;" 
d="M819 -76h-614q-28 0 -48 20t-20 49v614q0 28 20 48t48 20h341h46h22q7 0 12 -3t8 -8t3 -12q0 -4 -1.5 -8.5t-5 -7.5t-7.5 -4.5t-9 -1.5h-22h-46h-318q-10 0 -18.5 -4t-14.5 -10t-9.5 -14.5t-3.5 -17.5v-569q0 -19 13.5 -32t32.5 -13h568q19 0 32.5 13t13.5 32v364v42v4
q0 9 6.5 16t16.5 7q6 0 11 -3t8 -8.5t3 -11.5v-46v-386q0 -29 -20 -49t-48 -20zM448 226q-7 -7 -16.5 -7t-16 6.5t-6.5 16t6 16.5l409 411q7 7 16.5 7t16 -7t6.5 -16t-6 -16z" />
    <glyph glyph-name="uniE61D" unicode="&#xe61d;" 
d="M708 469l-257 -267l-135 141q-12 13 -28.5 13t-28 -12.5t-11.5 -29.5t11 -29l164 -170q4 -4 8 -7q6 -3 12.5 -4.5t13 -1t12.5 3.5t11 9l284 295q6 6 9 14t3 16t-3 15.5t-9 13.5q-41 16 -56 0zM512 300zM17 300q0 101 39 192.5t105.5 158t158 105.5t192.5 39t192.5 -39
t158 -105.5t105.5 -158t39 -192.5q0 -81 -25 -156.5t-70.5 -136.5t-106.5 -106.5t-136.5 -70.5t-156.5 -25q-101 0 -192.5 39t-158 105.5t-105.5 158t-39 192.5z" />
    <glyph glyph-name="uniE61E" unicode="&#xe61e;" 
d="M512 765q-95 0 -181 -37t-148 -99t-99 -148t-37 -181t37 -181t99 -148t148 -99t181 -37t181 37t148 99t99 148t37 181t-37 181t-99 148t-148 99t-181 37zM512 -95q-107 0 -198 53t-144 144t-53 198q0 80 31 153.5t84 126.5t126.5 84t153.5 31v-790z" />
    <glyph glyph-name="uniE61F" unicode="&#xe61f;" 
d="M975 386q0 25 -20 39l-406 297q-13 10 -29 10t-29 -10l-406 -297q-4 -3 -7.5 -6.5t-5.5 -8.5l-5 -5q-3 -6 -1 -13l-1 -2v-4v-493q0 -20 14.5 -34.5t34.5 -14.5h812q20 0 34.5 14.5t14.5 34.5v493zM513 693q3 2 7 2l7 -2l399 -292l-406 -232l-407 232zM934.5 -115.5
q-3.5 -3.5 -8.5 -3.5h-812q-4 0 -6.5 1.5t-4 4.5t-1.5 6v472l409 -233q2 -1 4 -1.5t5 -0.5h3q2 0 3.5 0.5t2.5 1.5l409 234v-473q0 -5 -3.5 -8.5z" />
    <glyph glyph-name="uniE620" unicode="&#xe620;" 
d="M810.5 632.5q-76.5 76.5 -179 103.5t-205 0t-179 -103.5t-103.5 -179t0 -205t104 -178.5q57 -58 131.5 -87.5t150 -29.5t150 29.5t131.5 87.5q76 76 103.5 178.5t0 205t-104 179zM785.5 95.5q-69.5 -69.5 -163 -94.5t-186.5 0t-162.5 94.5t-94 162.5t0 186.5t94 163
t162.5 94t186.5 0t163 -94.5t94 -163t0 -186t-94 -162.5zM694 539l23 -24l-352 -352l-23 24zM717 187l-23 -24l-341 341l24 23z" />
    <glyph glyph-name="uniE621" unicode="&#xe621;" 
d="M644 -105q-25 0 -41 18q-9 9 -22 20t-33 22t-36 11q-23 0 -49.5 -18t-41.5 -34q-16 -18 -41 -18q-6 0 -11 1.5t-10 3.5h-1l-107 60l-1 1q-14 10 -19 27.5t2 33.5q10 23 10 43q0 47 -33 80t-80 33h-4q-5 0 -9 1.5t-8 4t-7 6t-5.5 8t-4.5 10t-3 11.5q-10 48 -10 85
q0 10 1 22.5t2 22.5l4 20q1 10 1.5 14t1.5 6q1 9 4.5 17t8.5 13t11.5 8t12.5 2h4q47 0 80 33.5t33 79.5q0 21 -10 44q-3 8 -3.5 16.5t1.5 17t7 15.5t12 12l2 1l112 62h1q3 2 6.5 3t6.5 1h8q25 0 41 -16q15 -17 41 -34t48 -17t47.5 17t41.5 33q5 5 11.5 8.5t14 5.5t14.5 2h6
q3 0 5.5 -0.5t5 -1.5t4.5 -2l2 -1l108 -60l1 -1q15 -10 20 -27.5t-2 -33.5q-10 -23 -10 -44q0 -15 4 -29.5t11 -27t17.5 -23t23 -17.5t27 -11.5t30.5 -4.5h3q14 1 24.5 -10t13.5 -30q9 -48 9 -85t-9 -85q-3 -19 -13.5 -30t-24.5 -11h-3q-31 0 -57 -15t-41 -41t-15 -57
q0 -20 10 -43q7 -16 2 -33.5t-20 -27.5l-1 -1l-110 -61l-1 -1q-5 -2 -10 -3t-11 -1zM641 -53l3 -1l103 57q-13 33 -13 63q0 66 45 113.5t110 50.5q0 2 0.5 3.5t0.5 4.5l2 6q0 3 0.5 7t1.5 9v8l2 10v8q1 5 1 10v9q0 30 -8 75q-43 2 -78.5 24t-56 59t-20.5 80q0 31 13 64
l-101 56h-1q-2 0 -3 -1q-3 -2 -6.5 -5.5t-12.5 -11.5t-19 -15q-23 -16 -45.5 -24.5t-42.5 -8.5q-41 0 -89 34q-22 16 -37 32l-4 1h-1l-105 -57q3 -6 5.5 -13t5.5 -22t3 -29q0 -43 -20.5 -80t-56.5 -59t-78 -24q-2 -8 -3.5 -17t-3 -27t-1.5 -31q0 -30 8 -75q65 -3 110 -50.5
t45 -113.5q0 -13 -3 -28t-5.5 -22t-5.5 -13l100 -55h2h1l7 6q3 4 12.5 12.5t18.5 15.5q49 35 91 35q14 0 28.5 -4t30 -12t31.5 -20q23 -16 39 -34zM512 155q-41 0 -75.5 20t-54.5 55t-20 75.5t20 75.5t54.5 55t75.5 20q62 0 106 -44t44 -106.5t-44 -106.5t-106 -44zM512 405
q-41 0 -70 -29t-29 -70.5t29 -70.5t70 -29q27 0 50 13.5t36 36.5t13 50q0 41 -29 70t-70 29z" />
    <glyph glyph-name="uniE622" unicode="&#xe622;" 
d="M495.5 572q-65.5 0 -125.5 -18t-103 -44.5t-81.5 -63.5t-62 -67.5t-43 -63.5t-24.5 -44.5t-8 -18.5q3 -6 8 -17.5t24.5 -45t43 -63.5t62 -67t81.5 -63.5t103 -44.5t126 -18q219 0 369 190q54 68 78 129q-3 7 -8 18.5t-24.5 44.5t-42.5 63.5t-62 67.5t-82 63.5t-103 44.5
t-125.5 18zM496 61q-80 0 -136 56t-56 135.5t56 135.5t135.5 56t135.5 -56t56 -136q0 -52 -25.5 -96t-69.5 -69.5t-96 -25.5zM591 252q0 -39 -28 -67t-67 -28q-13 0 -25.5 3t-23 9.5t-19.5 15t-15 19.5t-9.5 23t-3.5 25q0 40 28 68t68 28q9 0 18.5 -2t18 -5.5t16.5 -8.5
t14.5 -11.5t11.5 -14.5t9 -16.5t5.5 -18t1.5 -19.5z" />
    <glyph glyph-name="uniE623" unicode="&#xe623;" 
d="M328 683l336 -383l-340 -388q-18 -21 -18 -51t18.5 -51.5t45.5 -21.5q26 0 44 21l384 438q20 22 20 53v0q0 10 -2.5 20t-7 18t-10.5 15l-384 439q-18 20 -44 20q-11 0 -20.5 -3.5t-17.5 -10.5t-14 -16t-9 -20t-3 -23q0 -34 22 -56z" />
    <glyph glyph-name="uniE624" unicode="&#xe624;" 
d="M384 812h256v-384h384v-256h-384v-384h-256v384h-384v256h384v384z" />
    <glyph glyph-name="uniE625" unicode="&#xe625;" 
d="M512 749q-171 0 -298 -113q-123 -110 -146 -272q-4 -32 -5 -63q0 -73 23 -141.5t64.5 -123.5t96.5 -96.5t123.5 -64t141.5 -22.5q91 0 174 35.5t143 95.5t95.5 143t35.5 174t-35.5 174t-95.5 143t-143 95.5t-174 35.5zM724 281q0 -1 -1 -3q-1 0 -1 -1l-6 -9h-1
q-1 -2 -2 -3l-262 -252q-7 -7 -16 -10.5t-18 -3.5q-22 0 -36 15q-15 15 -14.5 35.5t15.5 35.5l226 217l-227 215q-15 14 -15.5 34.5t13.5 35.5q3 3 5.5 5t5.5 4l6 2q3 2 6 3t6.5 1.5t6.5 0.5q20 0 35 -14l264 -250q12 -11 15 -27t-5 -31z" />
    <glyph glyph-name="uniE626" unicode="&#xe626;" 
d="M891 60q-10 10 -25.5 10t-25.5 -10l-45 -39v244q0 14 -11 23.5t-26 9.5t-25.5 -9.5t-10.5 -23.5v-245l-45 40q-11 10 -26 10t-25.5 -9.5t-10.5 -23t10 -22.5l108 -96q3 -2 6.5 -4t7 -3t7.5 -1.5t8 0t8 1.5t7.5 3t6.5 4l107 96q11 9 11 22.5t-11 22.5zM891 60zM919 154
v382q0 26 -18 44.5t-44 18.5h-688q-17 0 -31 -8.5t-22.5 -23t-8.5 -31.5v-500q0 -12 5 -23.5t13 -20t20 -13.5t24 -5h371q18 0 26 15.5t0.5 31t-26.5 15.5h-371v451l302 -248q18 -15 42 -15q6 0 11.5 1t11 2.5t10.5 4.5t9 7l302 248v-334q0 -6 3.5 -11t9 -8t12 -4t13 0.5
t12 4t9 7.5t3.5 12zM818 536l-303 -249q-1 -1 -2.5 -1t-1.5 1l-303 249h610zM169 36z" />
    <glyph glyph-name="uniE627" unicode="&#xe627;" 
d="M929 693l-309 -310l-108 -107l-108 107l-309 310l-20 -19l310 -310l127 -127v0l127 127l310 310zM929 357l-309 -309l-108 -108l-108 108l-309 309l-20 -19l310 -310l127 -127v0l127 127l310 310z" />
    <glyph glyph-name="uniE628" unicode="&#xe628;" 
d="M863 567h-702q-28 0 -28 -27v-480q0 -7 4 -13.5t10 -10t14 -3.5h702q12 0 20 8t8 19v480q0 12 -7.5 19t-12 7.5t-8.5 0.5zM784 512l-272 -215l-272 215h544zM836 88h-648v395l324 -257l324 257v-395z" />
    <glyph glyph-name="uniE629" unicode="&#xe629;" 
d="M512 -212q-139 0 -257 68.5t-186.5 186.5t-68.5 257t68.5 257t186.5 186.5t257 68.5t257 -68.5t186.5 -186.5t68.5 -257t-68.5 -257t-186.5 -186.5t-257 -68.5zM768 364h-192v192h-128v-192h-192v-128h192v-192h128v192h192v128z" />
    <glyph glyph-name="uniE62C" unicode="&#xe62c;" 
d="M2 302q0 -104 40.5 -198.5t109 -162.5t162.5 -108.5t198 -40.5t198.5 40.5t162.5 108.5t108.5 162.5t40.5 198.5t-40.5 198.5t-108.5 162.5t-162.5 108.5t-198.5 40.5q-188 0 -331 -122q-136 -117 -170 -292q-9 -48 -9 -96zM956 302q0 -72 -22.5 -140t-63.5 -122.5
t-95.5 -95.5t-122 -63.5t-140.5 -22.5q-90 0 -172 35t-141.5 94.5t-95 142t-35.5 172.5t35.5 172.5t95 141.5t141.5 94.5t172.5 35.5t172.5 -35.5t141.5 -94.5t94.5 -141.5t35 -172.5zM514 461l-271 -272l40 -41l231 231l231 -231l41 41z" />
    <glyph glyph-name="uniE62D" unicode="&#xe62d;" 
d="M2 302q0 -104 40.5 -198.5t109 -162.5t162.5 -108.5t198 -40.5t198.5 40.5t162.5 108.5t108.5 162.5t40.5 198.5t-40.5 198.5t-108.5 162.5t-162.5 108.5t-198.5 40.5q-188 0 -331 -122q-136 -117 -170 -292q-9 -48 -9 -96zM956 302q0 -72 -22.5 -140t-63.5 -122.5
t-95.5 -95.5t-122 -63.5t-140.5 -22.5q-90 0 -172 35t-141.5 94.5t-95 142t-35.5 172.5t35.5 172.5t95 141.5t141.5 94.5t172.5 35.5t172.5 -35.5t141.5 -94.5t94.5 -141.5t35 -172.5zM514 461l-271 -272l40 -41l231 231l231 -231l41 41z" />
    <glyph glyph-name="uniE62E" unicode="&#xe62e;" 
d="M251 301q0 -29 -21 -50t-50 -21q-15 0 -28 5.5t-22.5 15t-15 23t-5.5 27.5q0 30 20.5 50.5t50.5 20.5q19 0 35.5 -9.5t26 -25.5t9.5 -36zM845 372q-30 0 -51 -20.5t-21 -50t21 -50.5t51 -21q19 0 35.5 9.5t26 26t9.5 35.5q0 15 -5.5 28t-15.5 22.5t-23 15t-27 5.5z
M512 372q-29 0 -50 -20.5t-21 -50t21 -50.5t50 -21q12 0 23 3.5t19.5 10t15 15.5t10 20t3.5 22q0 20 -9.5 36t-25.5 25.5t-36 9.5z" />
    <glyph glyph-name="uniE62F" unicode="&#xe62f;" 
d="M768 -144h-575q-16 0 -30.5 4.5t-26.5 13.5t-21 21t-13.5 26.5t-4.5 29.5v639q0 40 28 68t68 28h447q13 0 22.5 -9.5t9.5 -22.5q0 -6 -2.5 -12t-7 -10.5t-10.5 -7t-12 -2.5h-447q-14 0 -23 -9.5t-9 -22.5v-639q0 -13 9 -22.5t23 -9.5h575q8 0 15.5 4.5t11.5 12t4 15.5
v511q0 7 3 13t7 10t10 6.5t12 2.5q9 0 16.5 -4t11.5 -11.5t4 -16.5v-511q0 -39 -28 -67t-67 -28zM580 367q-3 0 -6 0.5t-6 1.5t-5.5 3t-5.5 4q-9 9 -9 22.5t9 22.5l318 318q9 9 22.5 9t22.5 -9.5t9 -22.5t-9 -23l-318 -317q-9 -9 -22 -9zM448 367h-192q-13 0 -22 9t-9 22.5
t9 23t22 9.5h192q7 0 12.5 -3t10 -7t7 -10t2.5 -12q0 -14 -9.5 -23t-22.5 -9zM640 175h-384q-13 0 -22 9.5t-9 22.5t9 22.5t22 9.5h384q3 0 7 -1t7 -2.5t6 -3.5t5 -5t3.5 -6t2.5 -6.5t1 -7.5q0 -5 -2 -10t-4.5 -9t-6.5 -7t-9 -4.5t-10 -1.5zM640 175z" />
    <glyph glyph-name="uniE630" unicode="&#xe630;" 
d="M512 806q-103 0 -196.5 -40t-161.5 -108t-108 -161.5t-40 -196.5t40 -196.5t108 -161.5t161.5 -108t196.5 -40t197 40t161.5 108t107.5 161.5t40 196.5q0 59 -13 116t-38 106.5t-59.5 93.5t-78.5 78.5t-94 59.5t-107 38.5t-116 13.5zM512.5 -166q-94.5 0 -181 37
t-148.5 99.5t-99 148.5t-37 181t37 181t99 148.5t148.5 99t181 36.5t180.5 -36.5t148.5 -99t99.5 -148.5t37 -181t-37 -181t-99.5 -148.5t-148.5 -99.5t-180.5 -37zM532 604h-40v-284h-282v-40h282v-282h40v282h284v40h-284v284z" />
    <glyph glyph-name="uniE631" unicode="&#xe631;" horiz-adv-x="1051" 
d="M1050 305l-50 220l-132 15l-34 42l15 132l-203 98l-94 -94h-54l-94 94l-203 -98l15 -132l-33 -42l-133 -15l-50 -220l113 -70l12 -53l-71 -113l140 -176l126 44l49 -23l44 -126h225l44 126l48 23l126 -44l140 176l-71 113l12 53zM898 75l-69 -87l-104 37l-109 -53
l-36 -103h-110l-36 103l-109 53l-103 -37l-69 87l58 92l-27 118l-93 58l25 108l109 12l75 95l-12 109l99 48l78 -78h121l77 78l100 -48l-13 -109l76 -95l108 -12l25 -108l-93 -58l-27 -118zM525 495q-33 0 -63.5 -10t-55.5 -28.5t-43.5 -43.5t-28.5 -55.5t-10 -63.5
q0 -84 59 -143t142.5 -59t142.5 59t59 142.5t-59 142.5t-143 59zM525 153q-58 0 -99.5 41t-41.5 99.5t41.5 100t100 41.5t99.5 -41.5t41 -99.5q0 -39 -19 -71.5t-51.5 -51t-70.5 -18.5z" />
    <glyph glyph-name="uniE632" unicode="&#xe632;" 
d="M768 -45h-504q-35 0 -59.5 25t-24.5 59v505q0 35 25 61.5t59 26.5h339v-42h-339q-17 0 -29.5 -14t-12.5 -32v-505q0 -17 12 -29.5t30 -12.5h504q7 0 13.5 2.5t12.5 6.5t10.5 9t7 11.5t2.5 13.5v338h42v-338q0 -35 -26.5 -60t-61.5 -25zM517 159q-8 -8 -22 -11l-184 -91
q-10 -4 -18.5 -0.5t-11.5 11.5t0 19l91 184q2 7 4.5 12.5t6.5 9.5l327 327q12 12 29.5 12t29.5 -12l75 -74q12 -13 12 -30.5t-12 -29.5zM322 112q-4 -7 1.5 -12.5t12.5 -1.5l114 68l-60 60zM428 248l44 -44l15 -15l238 238l-75 73l-237 -237l5 -5l4 -4zM799 531l-45 44
q-3 3 -6.5 4.5t-7.5 1.5t-8 -1.5t-7 -4.5l-44 -43l73 -76l45 45q3 3 4.5 7t1.5 8t-1.5 8t-4.5 7z" />
    <glyph glyph-name="uniE633" unicode="&#xe633;" 
d="M1024 337h-475v475h-74v-475h-475v-74h475v-475h74v475h475v74z" />
    <glyph glyph-name="uniE634" unicode="&#xe634;" 
d="M470 261h-336q-15 0 -28 7.5t-20 20.5t-7 28q0 23 16 39.5t39 16.5h336h112h336q23 0 39.5 -16.5t16.5 -39.5t-16.5 -39.5t-39.5 -16.5h-336h-112z" />
    <glyph glyph-name="uniE635" unicode="&#xe635;" 
d="M717 521q0 6 1 11l2 12q1 5 3 10.5t3.5 10.5t4.5 11l-81 51q-46 -54 -117 -54q-37 0 -70 16.5t-55 46.5l-93 -62q9 -26 9 -53q0 -39 -20 -73.5t-54 -56.5t-74 -26v-107q60 -7 102 -52t42 -104q0 -39 -14 -70l88 -49q20 38 57.5 61t81.5 23q37 0 69.5 -16.5t55.5 -44.5
l73 49v1q-14 28 -14 46q0 59 38 104t93 52v107q-55 7 -93 52t-38 104zM637 290l-34 9q13 45 -18 81q-4 5 -9 10q-24 22 -58 22.5t-59 -21.5q-14 -11 -22 -27t-10 -34q-1 -12 1 -23.5t7 -22t13 -19.5q18 -21 44 -29t52 1l11 -33q-19 -6 -39 -6q-57 0 -95 44
q-33 40 -28.5 91.5t43.5 84.5q24 20 53.5 26.5t58.5 -1t52 -27.5q6 -6 12 -13q42 -50 25 -113zM768 812h-512q-106 0 -181 -75t-75 -181v-512q0 -106 75 -181t181 -75h512q69 0 128 34.5t93.5 93.5t34.5 128v512q0 106 -75 181t-181 75zM883 224h-17q-31 0 -57 -16.5
t-41.5 -45t-15.5 -60.5q0 -9 11 -31q5 -10 7 -15l5 -13l-127 -86l-10 16q-16 27 -44.5 43t-60.5 16q-38 0 -69.5 -22t-45.5 -58l-7 -19l-154 87l10 15q18 27 18 67q0 32 -17 60.5t-46.5 45t-63.5 16.5h-17v175h17q53 0 92 36.5t39 85.5q0 27 -12 52l-6 14l148 97l9 -15
q17 -29 44.5 -45t60.5 -16q29 0 55 14t44 39l9 13l135 -86l-7 -14q-8 -16 -12.5 -28.5t-4.5 -24.5q0 -33 15.5 -61t41.5 -44.5t57 -16.5h17v-175z" />
    <glyph glyph-name="uniE636" unicode="&#xe636;" 
d="M789 584h-551q-19 0 -35 -9t-25 -25t-9 -34v-368q0 -11 3.5 -21.5t9.5 -19t14.5 -15t19 -10t22.5 -3.5h551q28 0 48 20.5t20 48.5v368q0 8 -1.5 15.5t-5 14.5t-8 13t-10.5 10.5t-13 8t-14.5 5t-15.5 1.5zM834 169q0 -5 -0.5 -10.5t-2.5 -11t-4.5 -10t-5.5 -9t-7 -8
t-8 -6.5t-9 -5.5t-10 -4.5t-10.5 -3t-10.5 -1h-506q-28 0 -48 20.5t-20 48.5v325q0 29 20 49t48 20h506q28 0 48 -20t20 -49v-325zM781 231l15 18l-151 129l121 121l-17 17l-248 -248l-232 233l-17 -17l118 -117l-132 -133l16 -17l133 133l115 -115l16 16l111 111z" />
    <glyph glyph-name="uniE637" unicode="&#xe637;" 
d="M905 391h-63q-5 18 -13 37l-4 9q-2 6 -4.5 11.5t-5.5 11t-6 10.5l45 45q7 8 7 18q0 5 -2 9.5t-5 7.5l-94 94q-7 6 -17 6t-17 -6l-45 -46q-9 5 -17.5 9.5t-18.5 8.5l-8 3q-9 4 -18 7t-18 5v64q0 10 -7 17t-17 7h-132q-7 0 -12.5 -3t-9 -8.5t-3.5 -12.5v-64q-18 -5 -35 -12
l-10 -4q-17 -7 -34 -17l-45 46q-7 6 -17.5 6t-17.5 -6l-93 -94q-7 -7 -7 -17q0 -5 2 -9.5t5 -8.5l45 -45q-2 -4 -4.5 -8t-4.5 -8l-4 -10q-2 -4 -5 -9l-3 -8q-7 -18 -12 -36h-63q-11 0 -18 -7t-7 -17v-132q0 -7 3.5 -12.5t9 -9t12.5 -3.5h63q5 -18 13 -37l3 -9q8 -17 17 -33
l-45 -45q-7 -7 -7 -17.5t7 -17.5l93 -93q7 -7 17.5 -7t17.5 7l45 45q17 -9 33 -17l8 -3l3 -1q17 -7 35 -12v-64q0 -10 7.5 -17t17.5 -7h132q10 0 17.5 7t7.5 17v64l12 4l12 4q6 2 12 5l9 3q9 4 17.5 8t16.5 9l45 -45q7 -7 17.5 -7t16.5 7l94 93q7 7 7 17.5t-7 17.5l-45 45
l9 17l8 18l-13 6l15 -2l2 5q3 8 6 17l6 18h63q7 0 12.5 3.5t9 9t3.5 12.5v132q0 10 -7.5 17t-17.5 7zM901 239h-82l-3 -11q-5 -22 -14 -44l-1 -3l13 -6l-15 1q-4 -10 -9.5 -20t-11.5 -20l-6 -9l58 -58l-87 -88l-58 58l-10 -6q-18 -11 -41 -21l6 -13l-9 12l-5 -2
q-21 -9 -42 -14l-11 -2v-82h-124v82l-11 2q-22 6 -45 15l-5 -14l1 15l-6 -13l3 15q-20 9 -40 20l-9 6l-58 -58l-88 88l58 58l-6 9q-11 19 -21 41l-1 4l-13 -6l11 10q-8 21 -14 43l-2 11h-82v123h82l2 12q6 21 15 44l1 3l-13 5h15q9 20 20 39l6 10l-58 58l88 87l58 -58l9 6
q19 12 41 21l-4 14l8 -12l-3 14l8 -12q10 4 20.5 7t21.5 6l11 3v82h124v-82l11 -3l22 -6q11 -3 22 -8l5 13l-2 -14l5 -2q21 -9 39 -21l10 -6l58 58l87 -87l-58 -58l6 -10q3 -5 6 -9.5t5.5 -10t4.5 -10.5l6 -11l3 -8q8 -21 13 -42l3 -12h82v-123v0zM511 476q-73 0 -124 -51.5
t-51 -124t51 -123.5t123.5 -51t124 51t51.5 124q0 28 -9 55t-25 48.5t-37.5 37.5t-48.5 25t-55 9zM511 154q-61 0 -104 43t-43 103.5t43 103.5t104 43t103.5 -43t42.5 -103q0 -40 -19.5 -73.5t-53 -53.5t-73.5 -20z" />
    <glyph glyph-name="uniE638" unicode="&#xe638;" 
d="M613 246q-11 0 -19 7l-170 171q-2 2 -4 5t-2.5 6t-0.5 6.5t0.5 6.5t2.5 6l4 6q4 4 8.5 5.5t9.5 1.5t10 -1.5t8 -5.5l171 -170q7 -8 7 -18.5t-7 -18.5q-4 -3 -8.5 -5t-9.5 -2zM442.5 73q-10.5 0 -18 7.5t-7.5 18t7 17.5l170 170q8 8 18.5 8t18 -7.5t7.5 -18t-7 -18.5
l-171 -170q-7 -7 -17.5 -7zM490 -208q-99 0 -189 39q-87 36 -154 103.5t-104 154.5q-38 90 -38 189t38 189q37 87 104 154.5t154 104.5q11 4 22.5 8.5t23 8t23.5 6.5t23.5 5.5t23.5 4t24.5 3t24.5 2t24 0.5q99 0 189 -38q87 -37 154.5 -104.5t104.5 -154.5q38 -90 38 -189
t-38 -189q-37 -87 -104.5 -154.5t-154.5 -103.5q-90 -39 -189 -39zM490 702q-86 0 -164.5 -33.5t-135.5 -90.5t-90.5 -135.5t-33.5 -164.5q0 -115 57 -213t154.5 -154.5t212.5 -56.5t213 56.5t154.5 154.5t56.5 213t-56.5 213t-154.5 154.5t-213 56.5z" />
    <glyph glyph-name="uniE639" unicode="&#xe639;" 
d="M481.5 757q-97.5 0 -187 -38.5t-153.5 -102.5t-102 -153t-38 -187q0 -56 12.5 -110.5t36 -101.5t56.5 -89t75 -75t89 -56.5t101 -36t110 -12.5q98 0 187 38t153.5 102.5t102.5 153.5t38 187t-38 187t-102.5 153t-153.5 102.5t-186.5 38.5zM631 260l-171 -170q-2 -2 -5 -4
t-6 -2.5t-7 -0.5q-10 0 -17.5 7.5t-7.5 18t7 17.5l152 153l-152 152q-7 7 -7 17.5t7 18.5q5 5 11.5 6.5t13.5 0t11 -6.5l171 -170q7 -8 7 -18q0 -5 -2 -10t-5 -9zM576 279z" />
    <glyph glyph-name="uniE63A" unicode="&#xe63a;" 
d="M512 -146q-73 0 -141 22.5t-122.5 64t-96 96t-64 122.5t-22.5 141q0 52 11.5 102t33.5 94t52.5 83t69.5 69.5t83 52.5t94 33.5t102 11.5q121 0 224 -59.5t162.5 -162.5t59.5 -224q0 -170 -113 -296q-109 -123 -270 -146q-32 -4 -63 -4zM796 472q-3 2 -5.5 3.5t-5 2
t-5.5 0.5t-5.5 -0.5t-5 -2t-4.5 -3.5l-325 -325l-162 162q-2 2 -4 3.5t-4 1.5l-4 2h-4t-4.5 -0.5t-4.5 -1t-3 -2.5l-4 -3q-3 -3 -4.5 -7t-1.5 -8.5t1.5 -8.5t4.5 -7l166 -166q27 -24 48 -6l336 335q6 7 6 16t-6 15z" />
    <glyph glyph-name="uniE63C" unicode="&#xe63c;" 
d="M512 747q-91 0 -173.5 -35.5t-142.5 -95.5t-95.5 -142.5t-35.5 -173.5t35.5 -173.5t95.5 -142.5t142.5 -95.5t173.5 -35.5t173.5 35.5t142.5 95.5t95.5 142.5t35.5 173.5t-35.5 173.5t-95.5 142.5t-142.5 95.5t-173.5 35.5zM686 250h-348v100h348v-100z" />
    <glyph glyph-name="uniE63D" unicode="&#xe63d;" 
d="M513 748q92 0 175 -35.5t143 -95.5t95 -143t35 -175t-36 -175t-96 -142.5t-144 -94.5t-176 -35q-91 0 -173.5 36t-142.5 96t-95 143t-35 174t35.5 174t96 143t143.5 95t175 35zM511 -37q93 -1 170.5 43.5t122.5 121.5t46 170q0 40 -8.5 78.5t-25 72t-39.5 63t-52.5 52.5
t-63 40t-71.5 25.5t-78 8.5q-139 0 -237 -97q-98 -96 -101 -235v-4q0 -35 7 -69t19.5 -64t30.5 -57.5t40.5 -50t50 -41t57.5 -31t63.5 -19.5t68.5 -7zM735 244h-124h-199h-123v111h123h199h124v-111z" />
    <glyph glyph-name="uniE63E" unicode="&#xe63e;" 
d="M787 595q-76 75 -176.5 102t-201 0t-175.5 -102t-101.5 -175.5t0 -201t101.5 -175.5t175.5 -101.5t201 0t176 101.5t102 175.5t0 201t-101.5 175.5zM649 112l-138 139l-139 -139l-68 68l138 139l-138 139l68 68l139 -139l138 139l68 -68l-138 -139l139 -139zM649 112z
" />
    <glyph glyph-name="uniE640" unicode="&#xe640;" 
d="M1013 -100l-198 198q84 118 84 263q0 61 -16 119t-45 107.5t-70.5 91t-90.5 70.5t-107.5 45t-119.5 16q-91 0 -174.5 -35.5t-143.5 -95.5t-95.5 -143.5t-35.5 -174.5q0 -73 22.5 -141.5t64 -124t97 -97t124 -64t141.5 -22.5q145 0 263 84l198 -198q11 -11 26 -11t25 11
l51 51q5 4 7.5 9t3 10.5t0 11t-3 10.5t-7.5 10zM129 361q0 87 43 161t117 117t161 43q33 0 65 -6.5t60 -19t54 -30t48 -39t39.5 -47.5t29.5 -54.5t18.5 -60t6.5 -64.5q0 -87 -43 -161t-117 -117t-161 -43t-161 43t-117 117t-43 161z" />
    <glyph glyph-name="uniE641" unicode="&#xe641;" 
d="M512 747q-185 0 -316 -131t-131 -316t131 -316t316 -131t316 131t131 316t-131 316t-316 131zM512 -117q-113 0 -209 56t-152 152t-56 209t56 209t152 152t209 56t209 -56t152 -152t56 -209q0 -161 -108 -280q-105 -116 -260 -134q-25 -3 -49 -3zM303 315h418v-30h-418
v30z" />
    <glyph glyph-name="uniE642" unicode="&#xe642;" 
d="M512 747q-185 0 -316 -131t-131 -316t131 -316t316 -131t316 131t131 316t-131 316t-316 131zM512 -117q-113 0 -209 56t-152 152t-56 209t56 209t152 152t209 56t209 -56t152 -152t56 -209t-56 -209t-152 -152t-209 -56zM527 509h-30v-194h-194v-30h194v-194h30v194h194
v30h-194v194z" />
    <glyph glyph-name="uniE643" unicode="&#xe643;" 
d="M1020 358q-2 11 -9 21.5t-17.5 18t-20.5 10.5l-17 3q-30 9 -54.5 28.5t-41.5 47.5q-16 28 -20.5 60t3.5 61l5 16q3 8 2.5 17.5t-3 18.5t-7.5 17t-11 13q-1 0 -1.5 1t-3 2.5t-5.5 4t-8 5.5t-11 7t-14 9t-17 10q-20 11 -35.5 19t-21.5 11l-6 2q-16 6 -35.5 1t-31.5 -17
l-12 -13q-47 -45 -113 -45q-16 0 -32 3.5t-30.5 9t-27.5 14t-24 19.5l-11 12q-12 12 -31.5 17t-35.5 -1q-2 -1 -6.5 -3t-21 -10t-35.5 -19q-9 -5 -17 -10t-14 -9t-11 -7.5t-8 -5.5t-5.5 -3.5t-3.5 -2.5l-1 -1q-6 -5 -11 -13t-7.5 -17t-3 -18.5t2.5 -17.5l5 -16
q7 -29 2.5 -61t-20.5 -60t-41 -47.5t-55 -28.5l-16 -3q-17 -4 -31 -18.5t-17 -31.5v-2q0 -2 -0.5 -8.5t-1 -14t-1 -20t-0.5 -26.5q0 -23 1 -40.5t2 -23.5v-7q3 -17 17 -31.5t31 -18.5l16 -3q63 -19 96 -76q33 -58 18 -122l-5 -15q-3 -11 -2 -23.5t7 -24t14 -18.5
q16 -13 60 -39q20 -11 35.5 -19t21.5 -11l6 -2q16 -6 35.5 -1t31.5 17l11 12q48 45 114 45t114 -45l11 -12q12 -12 31.5 -17t35.5 1q19 7 63 32q13 7 23.5 13.5t17 11t11 8t6.5 4.5l2 2q8 7 14 18.5t7 23.5t-2 24l-5 16q-15 64 18 121t96 76l16 3q16 4 30 18.5t17 31.5
q4 20 4 71q0 10 -0.5 19.5t-0.5 16.5t-0.5 13t-1 10t-0.5 6.5t-1 3.5v2zM514 84q-84 0 -143.5 59.5t-59.5 143.5q0 55 27 102t74 74t102 27t102 -27t74 -74t27 -102q0 -84 -59.5 -143.5t-143.5 -59.5zM514 84z" />
    <glyph glyph-name="uniE645" unicode="&#xe645;" 
d="M480 748q-98 0 -186.5 -38t-153 -102.5t-102.5 -153t-38 -186.5t38 -186.5t102.5 -153t153 -102.5t186.5 -38t186.5 38t153 102.5t102.5 153t38 186.5t-38 186.5t-102.5 153t-153 102.5t-186.5 38zM704 236h-448q-13 0 -22.5 9.5t-9.5 22.5t9.5 22.5t22.5 9.5h448
q13 0 22.5 -9.5t9.5 -22.5t-9.5 -22.5t-22.5 -9.5z" />
    <glyph glyph-name="uniE646" unicode="&#xe646;" 
d="M197 361h630v-146h-630v146zM439 603h146v-630h-146v630z" />
    <glyph glyph-name="uniE647" unicode="&#xe647;" 
d="M913 469q-33 78 -93.5 138.5t-138.5 93.5q-81 34 -169 34t-169 -34q-39 -17 -74 -40.5t-64.5 -53t-53 -64.5t-40.5 -74q-5 -11 -9 -23t-7.5 -23.5t-6 -23.5t-5 -24.5t-3.5 -24.5t-2 -24.5t-1 -25.5q0 -88 34 -169q33 -78 93.5 -138.5t138.5 -93.5q40 -17 82.5 -25.5
t86.5 -8.5q88 0 169 34q78 33 138.5 93.5t93.5 138.5q34 81 34 169t-34 169zM783 29q-36 -36 -79.5 -61.5t-92 -38.5t-99.5 -13q-77 0 -147 29t-124.5 83.5t-83.5 124.5t-29 147t29 147t83.5 124.5t124.5 83.5t147 29t147 -29t124.5 -83.5t83.5 -124.5t29 -147
q0 -26 -3.5 -51t-10 -49t-16 -47t-22 -44.5t-28 -41.5t-33.5 -38zM538 587q0 4 -1.5 8t-4 7t-5.5 5.5t-7 3.5t-8 1q-11 0 -18.5 -7.5t-7.5 -17.5v-275q0 -1 0.5 -2.5t0.5 -3.5l-1 -6q0 -7 3.5 -13t9.5 -9.5t13 -3.5h287q10 0 17.5 7.5t7.5 18.5t-7.5 18.5t-17.5 7.5h-261
v261z" />
    <glyph glyph-name="uniE64A" unicode="&#xe64a;" 
d="M903 356h-56q-1 0 -2.5 -0.5t-2.5 -0.5q-13 77 -58 140q1 1 2.5 1.5t2.5 1.5l39 40q8 8 12.5 18.5t4.5 21t-4.5 21t-12.5 18.5t-18.5 12t-21 4t-21 -4t-18.5 -12l-40 -40l-1 -2l-2 -2q-62 45 -140 58v2q1 2 1 3v56q0 23 -16.5 39.5t-39.5 16.5q-15 0 -28 -7.5
t-20.5 -20.5t-7.5 -28v-56q0 -1 1 -3v-2q-77 -13 -140 -58q0 1 -1 2q-1 2 -2 2l-39 40q-17 16 -40 16t-40 -16q-10 -11 -14 -25.5t0 -28.5t14 -25l40 -40l2 -2q2 0 2 -1q-45 -63 -57 -140q-1 0 -3 0.5t-3 0.5h-56q-23 0 -39.5 -16.5t-16.5 -39.5t16.5 -39.5t39.5 -16.5h56
q1 0 3 0.5t3 0.5q12 -77 57 -140q0 -1 -1.5 -1.5t-2.5 -1.5l-40 -40q-10 -10 -14 -24.5t0 -29t14 -25.5q17 -16 40 -16t40 16l39 40q1 0 2 2l1 2q31 -22 66.5 -36.5t73.5 -21.5v-2q-1 -2 -1 -3v-56q0 -8 2 -15t5.5 -13.5t9 -11.5t11.5 -8.5t13.5 -5.5t14.5 -2
q23 0 39.5 16.5t16.5 39.5v56q0 1 -1 3v2q78 13 140 58q1 0 2 -2l1 -2l40 -40q16 -16 39.5 -16t39.5 16q5 5 8.5 10.5t5.5 11t2.5 12t0 12.5t-2.5 12t-5.5 11.5t-8.5 9.5l-39 40q-1 1 -3 2l-2 1q9 12 16.5 25t14 27t11.5 28.5t9 29.5t7 30h2q2 -1 3 -1h56q24 0 40 16.5
t16 39.5t-16 39.5t-40 16.5zM511 121q-69 0 -124 54.5t-55 124.5t55 124.5t124.5 54.5t124.5 -54.5t55 -124.5q0 -19 -5.5 -39t-14.5 -37.5t-21.5 -33t-28.5 -28.5t-33.5 -22t-37 -14t-39.5 -5z" />
    <glyph glyph-name="uniE64B" unicode="&#xe64b;" 
d="M60 356h904v-113h-904v113z" />
    <glyph glyph-name="uniE64C" unicode="&#xe64c;" 
d="M288 -212q-27 1 -45 19q-19 18 -19 45t19 45l403 403l-403 403q-13 12 -17 28.5t0 33t17 28.5q4 5 9.5 8.5t11.5 6t12 3.5t12 1t12 -1t12 -3.5t11.5 -6t9.5 -8.5l448 -448q19 -18 19 -45t-19 -45l-448 -448q-18 -19 -45 -19z" />
    <glyph glyph-name="uniE64D" unicode="&#xe64d;" 
d="M512 12q-6 0 -12 1t-12 3.5t-11.5 6t-9.5 8.5l-448 448q-19 18 -19 45t19 45q9 9 21 14t24 5t24 -5t21 -14l403 -403l403 403q12 13 28.5 17t33 0t28.5 -17q9 -9 14 -21t5 -24t-5 -24t-14 -21l-448 -448q-19 -19 -45 -19z" />
    <glyph glyph-name="uniE64F" unicode="&#xe64f;" 
d="M512 -212q-139 0 -257 68.5t-186.5 186.5t-68.5 257t68.5 257t186.5 186.5t257 68.5t257 -68.5t186.5 -186.5t68.5 -257t-68.5 -257t-186.5 -186.5t-257 -68.5zM512 755q-74 0 -143.5 -23t-125.5 -65t-98 -98t-65 -125.5t-23 -143.5q0 -93 36 -177t97 -145t145 -97
t177 -36t177 36t145 97t97 145t36 177q0 172 -114 301q-110 125 -273 149q-34 5 -68 5zM825 272h-285v-285q0 -13 -14 -18.5t-28 0t-14 18.5v285h-285q-13 0 -18.5 14t-0.5 28t19 14h285v285q0 13 14 18.5t28 0.5t14 -19v-285h285q12 0 18 -14t0.5 -28t-18.5 -14z" />
    <glyph glyph-name="uniE650" unicode="&#xe650;" 
d="M0 268q0 -98 38 -186.5t102.5 -153t153 -102.5t186.5 -38t186.5 38t153 102.5t102.5 153t38 186.5t-38 186.5t-102.5 153t-153 102.5t-186.5 38t-186.5 -38t-153 -102.5t-102.5 -153t-38 -186.5zM896 268q0 -172 -122 -294t-294 -122t-294 122t-122 294t122 294t294 122
t294 -122t122 -294zM480 184l-170 170q-9 10 -22.5 10t-22.5 -10q-18 -17 -5 -39q2 -3 5 -6l192 -193q10 -9 23 -9t23 9l191 192q10 9 10 23q0 6 -2.5 12t-7.5 10q-9 10 -22.5 10t-22.5 -10z" />
    <glyph glyph-name="uniE651" unicode="&#xe651;" 
d="M960 391h-359v359h-179v-359h-359v-180h359v-359h179v359h359v180z" />
    <glyph glyph-name="uniE652" unicode="&#xe652;" 
d="M444 107q28 -38 68 -38t68 38l205 273q19 24 19 45t-17 33.5t-48 12.5h-454q-31 0 -48.5 -12.5t-17 -33t19.5 -45.5zM57 699v-798q0 -23 16.5 -39.5t39.5 -16.5h798q23 0 39.5 16.5t16.5 39.5v798q0 9 -3 17.5t-8 15.5t-12 12t-15.5 8t-17.5 3h-798q-15 0 -28 -7.5
t-20.5 -20.5t-7.5 -28zM0 699q0 47 33 80t80 33h798q47 0 80 -33t33 -80v-798q0 -18 -5.5 -35.5t-16 -31.5t-24.5 -24.5t-31.5 -16t-35.5 -5.5h-798q-30 0 -56.5 15t-41.5 41.5t-15 56.5v798z" />
    <glyph glyph-name="uniE653" unicode="&#xe653;" 
d="M0 719q0 39 27 66t66 27h838q39 0 66 -27t27 -66v-838q0 -39 -27 -66t-66 -27h-838q-39 0 -66 27t-27 66v838zM47 719v-838q0 -19 13.5 -32.5t32.5 -13.5h838q19 0 32.5 13.5t13.5 32.5v838q0 13 -6 23.5t-16.5 16.5t-23.5 6h-838q-19 0 -32.5 -13.5t-13.5 -32.5z
M465 347h-279v-94h279v-279h94v279h279v94h-279v279h-94v-279z" />
    <glyph glyph-name="uniE654" unicode="&#xe654;" 
d="M32 396h960v-192h-960v192z" />
    <glyph glyph-name="uniE655" unicode="&#xe655;" 
d="M959 364h-383v384h-128v-384h-384v-128h384v-383h128v383h383v128z" />
    <glyph glyph-name="uniE656" unicode="&#xe656;" 
d="M512 738q-107 0 -198 -53t-143.5 -144t-52.5 -197.5t52.5 -197.5t143.5 -144t198 -53t198 53t143.5 144t52.5 197.5t-52.5 197.5t-143.5 144t-198 53zM512 -9q-96 0 -177 47t-128.5 128.5t-47.5 177t47.5 177t128.5 128.5t177 47q57 0 111 -18t97.5 -50.5t76 -76
t50.5 -97t18 -111.5q0 -141 -99 -244q-97 -101 -236 -108h-18zM700 532q-3 3 -6.5 4.5t-7.5 1.5t-8 -1.5t-7 -4.5l-159 -160l-159 160q-6 6 -14.5 6t-14.5 -6t-6 -14.5t6 -14.5l159 -160l-159 -159q-3 -3 -4.5 -6.5t-1.5 -7.5t1.5 -8t4.5 -7t6.5 -4.5t7.5 -1.5t8 1.5t7 4.5
l159 160l159 -160q3 -3 7 -4.5t8 -1.5t7.5 1.5t6.5 4.5q4 4 5.5 9.5t0 10.5t-5.5 9l-159 159l159 160q4 4 5.5 9t0 10.5t-5.5 9.5z" />
    <glyph glyph-name="uniE657" unicode="&#xe657;" 
d="M512 738q-80 0 -153 -31.5t-126 -84t-84 -125.5t-31 -153q0 -107 52.5 -198t143.5 -144t198 -53t198 53t143.5 144t52.5 198t-52.5 197.5t-143.5 143.5t-198 53zM757 477l-298 -298q-4 -4 -9.5 -5.5t-11 0t-10.5 5.5l-161 162q-2 2 -3.5 5t-2 6.5t0 7t2 6.5t3.5 6
q2 1 3.5 2.5t3.5 2t4.5 1t4.5 0.5h4l4 -2q2 0 3.5 -1.5t3.5 -2.5l146 -146l282 282q6 6 15 6t15.5 -6.5t6.5 -15.5t-6 -15z" />
    <glyph glyph-name="uniE658" unicode="&#xe658;" 
d="M97 172q1 13 9 22l384 384q3 3 6.5 5t7.5 3t8 1t8 -1t8 -3t7 -5t5 -7t3 -8t1 -8t-1 -8t-3 -7.5t-5 -6.5l-384 -384q-9 -9 -22.5 -9t-22.5 9t-9 23zM480 555q0 3 0.5 5.5t1.5 4.5t2 4.5t2.5 4.5t3.5 4q9 9 22 9t23 -9l383 -384q3 -3 5.5 -6.5t3.5 -7.5t1 -8t-1 -8t-3.5 -8
t-5.5 -7t-6.5 -5t-7.5 -3t-8 -1t-8 1t-8 3t-7 5l-383 384q-10 9 -10 22z" />
    <glyph glyph-name="uniE659" unicode="&#xe659;" 
d="M512 812q139 0 257 -68.5t186.5 -186.5t68.5 -257t-68.5 -257t-186.5 -186.5t-257 -68.5t-257 68.5t-186.5 186.5t-68.5 257t68.5 257t186.5 186.5t257 68.5zM512 -98q108 0 200 53t145 145t53 200t-53 200t-145 145t-200 53t-200 -53t-145 -145t-53 -200t53 -200
t145 -145t200 -53zM300 471l212 -212l212 212l73 -72l-285 -286l-285 286z" />
    <glyph glyph-name="uniE65B" unicode="&#xe65b;" 
d="M978 425h-352v355h-234v-355h-352v-228h352v-373h234v373h352v228z" />
    <glyph glyph-name="uniE65D" unicode="&#xe65d;" 
d="M742 497q-46 46 -105.5 70.5t-124.5 24.5q-135 0 -230 -95t-95 -229.5t95 -230t230 -95.5t230 95q46 46 70.5 105.5t24.5 124.5q-1 135 -95 230zM710 255h-396q-3 0 -6 1.5t-4.5 4.5t-1.5 6q0 5 3.5 9t8.5 4h396q5 0 8.5 -4t3.5 -9q0 -12 -12 -12z" />
    <glyph glyph-name="uniE65E" unicode="&#xe65e;" 
d="M512 -196q-3 0 -6 0.5t-5.5 1.5t-5.5 2t-5 3l-4 4q-90 98 -180 220q-79 108 -125 194q-59 113 -59 187q0 78 31 148q29 69 84 121q26 26 57.5 46.5t66.5 35.5q72 29 151 29t152 -29q23 -10 44.5 -22.5t41.5 -27t37 -32.5q55 -52 84 -121q8 -17 13.5 -35t9.5 -37t6 -38
t2 -38q0 -25 -6.5 -54t-19.5 -62t-33 -71q-46 -86 -125 -194q-90 -122 -180 -220q-10 -11 -26 -11zM512 725q-132 0 -226 -91q-92 -90 -92 -218q0 -28 13 -67t38 -86q43 -82 119 -185q67 -92 148 -185q81 94 149 185q75 103 118 185q51 97 51 153q0 62 -24 118t-68 100
q-94 91 -226 91zM512 280q-64 0 -109 44t-45 106q0 41 20.5 76t56 55t77.5 20q64 0 109 -44t45 -107q0 -24 -8 -47t-22 -41.5t-33 -32.5t-42.5 -21.5t-48.5 -7.5zM512 509q-34 0 -58 -23t-24 -55.5t24 -56t58 -23.5q22 0 41 10.5t30 29t11 39.5q0 33 -24 56t-58 23z" />
    <glyph glyph-name="uniE662" unicode="&#xe662;" 
d="M175 288q0 -28 20 -48t48 -20t48 20t20 48q0 14 -5.5 26.5t-14.5 21.5t-21.5 14.5t-26.5 5.5q-28 0 -48 -20t-20 -48zM443 288q0 -9 2 -18t6.5 -16.5t11 -13.5t14 -10.5t16 -7t18.5 -2.5q28 0 48 20t20 48t-20 48t-48 20q-19 0 -34.5 -9t-24.5 -25t-9 -34zM692 288
q0 -18 9 -34t24.5 -25t34.5 -9q28 0 48 20t20 48t-20 48t-48.5 20t-48 -20t-19.5 -48z" />
    <glyph glyph-name="uniE663" unicode="&#xe663;" 
d="M512 384q-1 -1 -2 -2.5t-2 -1.5l-1 -2l-155 -156l-173 -172q-10 -10 -21.5 -13.5t-25.5 0.5q-9 3 -16 9q-28 27 -41 42q-8 9 -10.5 19.5t0.5 21.5t12 20l2 2l399 399q22 21 48 13q6 -2 10.5 -5.5t9.5 -8.5q89 -88 355 -354l11 -11l12 -12l11 -11q6 -6 11 -12
q25 -25 8 -55q-2 -4 -5 -7q-35 -35 -41 -40q-7 -7 -15 -10t-16 -2.5t-16 4t-15 10.5l-3 4q-232 231 -326 325q-1 1 -3 4z" />
    <glyph glyph-name="uniE664" unicode="&#xe664;" 
d="M512 216q1 1 2 3l3 3l155 156l173 172q21 21 47 13q9 -3 16 -9q28 -27 41 -42q8 -9 10.5 -19.5t-0.5 -21.5t-12 -20l-2 -2l-399 -399q-7 -7 -14.5 -10.5t-16 -4.5t-17.5 2q-6 2 -10.5 5.5t-9.5 8.5q-81 80 -355 354q-42 42 -45 46q-12 11 -14 25.5t6 29.5q2 4 5 7l13 13
q9 9 15 15.5t13 11.5q6 5 12 8t12.5 4t13 -0.5t12.5 -5t12 -8.5l3 -4q229 -229 326 -325z" />
    <glyph glyph-name="uniE665" unicode="&#xe665;" 
d="M869 633h-720q-35 0 -59 -24.5t-24 -59.5v-498q0 -35 24 -59.5t59 -24.5h720q35 0 59 24.5t24 59.5v498q0 23 -11 42t-30 30.5t-42 11.5zM141 23l-20 20l229 229l20 -20zM876 23l-228 229l20 20l229 -229zM537 208v-19h-56v19l-360 334l35 35l353 -327l353 327l35 -35z
" />
    <glyph glyph-name="uniE666" unicode="&#xe666;" 
d="M832 288q0 23 -6 55l117 95l-86 148l-141 -53q-43 36 -94 54l-25 149h-170l-25 -149q-51 -18 -94 -54l-141 53l-86 -148l116 -95q-5 -33 -5 -55q0 -13 1.5 -26t4.5 -29l-117 -95l86 -148l141 53q43 -36 94 -54l25 -149h170l25 149q51 18 94 54l141 -53l86 148l-117 95
q3 16 4.5 29t1.5 26zM512 128q-66 0 -113 47t-47 113t47 113t113 47t113 -47t47 -113t-47 -113t-113 -47z" />
    <glyph glyph-name="uniE668" unicode="&#xe668;" 
d="M885 604h-746q-15 0 -29 -6t-24 -16t-16 -24t-6 -29v-458q0 -31 22 -53t53 -22h746q21 0 38 10t27 27.5t10 37.5v458q0 20 -10 37.5t-27 27.5t-38 10zM848 540l-281 -249q-37 -33 -54.5 -33t-54.5 33l-281 249h671zM129 95v397l223 -195zM184 61l217 193l35 -32
q32 -27 76.5 -27t75.5 27l36 32l217 -193h-657zM895 95l-223 202l223 195v-397z" />
    <glyph glyph-name="uniE66B" unicode="&#xe66b;" 
d="M781 548h-538q-11 0 -20.5 -5.5t-15 -15t-5.5 -20.5v-414q0 -8 3 -15.5t8.5 -13.5t13.5 -9t16 -3h538q17 0 29 12t12 29v414q0 17 -12 29t-29 12zM751 486l-239 -230l-239 230h478zM264 114v324l248 -239l248 239v-324h-496z" />
    <glyph glyph-name="uniE66D" unicode="&#xe66d;" 
d="M510 750q-73 0 -141 -23t-123 -64.5t-96.5 -96.5t-64.5 -123t-23 -141q0 -91 35.5 -174t95.5 -143t143 -95.5t174 -35.5t174 35.5t143 95.5t95.5 143t35.5 174t-35.5 174t-95.5 143t-143 95.5t-174 35.5zM708 183q5 -5 7 -12.5t0 -14.5t-7 -12l-40 -40q-2 -2 -4 -3.5
t-4.5 -2.5t-5.5 -1.5t-5.5 -0.5t-5 0.5t-5 1.5t-5 2.5t-4.5 3.5l-119 119l-119 -119q-5 -5 -12 -7t-14.5 0t-12.5 7l-40 40q-8 8 -8 19.5t8 19.5l119 119l-119 119q-2 2 -4 5.5t-3 7t-1 7t1 7t3 6.5l4 6l40 40q5 5 12.5 7t14.5 0t12 -7l119 -119l119 119q4 4 9 6t10.5 2
t10.5 -2t9 -6l40 -40q5 -5 7 -12.5t0 -14.5t-7 -12l-119 -119z" />
    <glyph glyph-name="uniE670" unicode="&#xe670;" 
d="M512 748q-92 0 -175 -35.5t-143 -95.5t-95.5 -143t-35.5 -174.5t35.5 -174.5t95.5 -143t143 -95.5t174.5 -35.5t174.5 35.5t143 95.5t95.5 143t35.5 175q0 61 -16 119t-45 107t-70.5 90.5t-90.5 70.5t-107 45t-119 16zM512 -84q-78 0 -149.5 30.5t-122.5 82t-81.5 122.5
t-30.5 149t30.5 149.5t81.5 122.5t122.5 81.5t149.5 30.5t149 -30.5t122.5 -81.5t82 -122.5t30.5 -149.5q0 -104 -51.5 -192.5t-140 -140t-192.5 -51.5zM539 505q0 4 -0.5 7t-2 6t-3 5.5t-3.5 4.5t-4.5 4t-5 3t-5.5 1.5t-6 0.5q-12 0 -21 -9.5t-9 -22.5v-133v-37
q0 -2 -1.5 -3t-3.5 -1h-36h-131q-9 0 -16.5 -4t-11.5 -11t-4 -15q0 -12 9 -20.5t23 -8.5h132h36q3 -2 4 -5v-37v-135q0 -6 2.5 -12t6.5 -10.5t9.5 -7t11.5 -2.5q8 0 15 4.5t11 12t4 15.5v138v35q0 4 3 4h36h139q13 0 22.5 8.5t9.5 20.5t-9.5 20.5t-22.5 8.5h-138h-36
q-4 0 -4 6v38v131z" />
    <glyph glyph-name="uniE671" unicode="&#xe671;" 
d="M513 715q-116 0 -214.5 -57.5t-155.5 -155.5t-57 -214t57 -214t155.5 -155.5t214.5 -57.5t214 57.5t155 155.5t57 214q0 87 -33.5 166t-91 136t-136.5 91t-165 34zM512 -96q-159 0 -271.5 112.5t-112.5 271.5t112.5 271.5t271.5 112.5t271.5 -112.5t112.5 -271.5
t-112.5 -271.5t-271.5 -112.5zM533 544h-42v-235h-235v-42h235v-235h42v235h235v42h-235v235z" />
    <glyph glyph-name="uniE673" unicode="&#xe673;" 
d="M960 229q0 -5 -4 -9q-1 -2 -2 -2l-4 -2h-3h-353v-351q0 -6 -3.5 -9.5t-9.5 -3.5h-142q-5 0 -9 3.5t-4 9.5v351h-349h-3l-4 2q-1 0 -2 2q-4 4 -4 9v142q0 5 4 9q1 2 3.5 3t5.5 1h349v351q0 6 4 9.5t9 3.5h142q6 0 9.5 -3.5t3.5 -9.5v-351h353q6 -1 9 -4q4 -4 4 -9v-142z
" />
    <glyph glyph-name="uniE676" unicode="&#xe676;" 
d="M244 304q0 37 -26 63.5t-63 26.5q-24 0 -44.5 -12t-32.5 -32.5t-12 -45.5q0 -37 26 -63t63 -26t63 26t26 63zM422 304q0 -37 26.5 -63t63.5 -26q24 0 44.5 12t32.5 32.5t12 44.5q0 37 -26 63.5t-63 26.5q-25 0 -45.5 -12t-32.5 -32.5t-12 -45.5zM779 304q0 -37 26 -63
t63 -26t63.5 26t26.5 63t-26.5 63.5t-63.5 26.5q-8 0 -16 -1.5t-15 -4.5t-13.5 -6.5t-12.5 -8.5t-11 -11t-8.5 -12.5t-6.5 -14t-4.5 -15t-1.5 -16.5zM779 304z" />
    <glyph glyph-name="uniE677" unicode="&#xe677;" 
d="M512 780q-98 0 -186.5 -38t-153 -102.5t-102.5 -153t-38 -186.5t38 -186.5t102.5 -153t153 -102.5t186.5 -38t186.5 38t153 102.5t102.5 153t38 186.5t-38 186.5t-102.5 153t-153 102.5t-186.5 38zM589 223v-307h-154v307h-307v154h307v307h154v-307h307v-154h-307z" />
    <glyph glyph-name="uniE67D" unicode="&#xe67d;" 
d="M832 256q0 -4 -1 -8.5t-3 -8t-5 -6.5t-6.5 -5t-8 -3t-8.5 -1h-224v-224q0 -13 -9.5 -22.5t-22.5 -9.5h-64q-13 0 -22.5 9.5t-9.5 22.5v224h-224q-13 0 -22.5 9.5t-9.5 22.5v64q0 13 9.5 22.5t22.5 9.5h224v224q0 5 1.5 10t4.5 9t7 7t9 4.5t10 1.5h64q13 0 22.5 -9.5
t9.5 -22.5v-224h224q5 0 10 -1.5t9 -4.5t7 -7t4.5 -9t1.5 -10v-64z" />
    <glyph glyph-name="uniE67F" unicode="&#xe67f;" 
d="M470 720v-443q0 -2 1.5 -3.5t3.5 -1.5h457q0 -116 -59.5 -213t-160 -152t-217.5 -55q-118 0 -217 56t-156.5 153.5t-57.5 213.5q0 88 31 169.5t84 142.5t129 97t162 36zM526 748q118 0 217.5 -55t158 -152t58.5 -213h-429q-2 0 -3.5 1.5t-1.5 3.5v415z" />
    <glyph glyph-name="uniE683" unicode="&#xe683;" 
d="M1024 485l-512 -512l-512 512l146 146l366 -366l366 366z" />
    <glyph glyph-name="uniE685" unicode="&#xe685;" 
d="M191 333h642v-66h-642v66zM479 621h66v-642h-66v642zM943 748h-862q-7 0 -12 -5t-5 -12v-862q0 -3 1.5 -6.5t3.5 -5.5t5.5 -3.5t6.5 -1.5h862q5 0 9 2t6 6t2 9v862q0 2 -0.5 4.5t-1.5 4.5t-2.5 3.5t-3.5 2.5t-4.5 1.5t-4.5 0.5zM895 -83l-767 -1v768l767 1v-768z" />
    <glyph glyph-name="uniE686" unicode="&#xe686;" 
d="M512 812q-189 0 -333 -123q-136 -117 -170 -292q-9 -48 -9 -97q0 -104 40.5 -199t109 -163.5t163.5 -109t199 -40.5t199 40.5t163.5 109t109 163.5t40.5 199q0 70 -18.5 136t-51.5 122.5t-80 103.5t-103.5 80t-122.5 51.5t-136 18.5zM440 74l-217 217l90 90l127 -126
l271 271l90 -91z" />
    <glyph glyph-name="uniE687" unicode="&#xe687;" 
d="M512 812q-189 0 -333 -123q-136 -117 -170 -292q-9 -48 -9 -97q0 -104 40.5 -199t109 -163.5t163.5 -109t199 -40.5t199 40.5t163.5 109t109 163.5t40.5 199q0 70 -18.5 136t-51.5 122.5t-80 103.5t-103.5 80t-122.5 51.5t-136 18.5zM756 127l-71 -72q-7 -7 -17 -3
q-1 0 -2.5 1t-2.5 2l-151 151l-151 -151l-6 -3q-3 -1 -5.5 -1t-5.5 1t-5 3l-72 72q-7 7 -3 16l3 6l152 151l-152 151q-1 1 -2 2.5t-1 2.5q-4 10 3 17l72 71q7 7 16 4q2 -1 3.5 -2t2.5 -2l151 -151l151 151q2 3 5 4q10 3 17 -4l71 -71q7 -7 4 -17q-1 -3 -4 -5l-151 -151
l151 -151q1 -1 2 -2.5t2 -3.5q1 -3 1 -5.5t-1.5 -5.5t-3.5 -5z" />
    <glyph glyph-name="uniE68A" unicode="&#xe68a;" 
d="M717 -83h-460q-32 0 -54.5 24t-22.5 58v557q0 34 22 53.5t55 19.5h357q26 0 26 -22q0 -21 -26 -21h-358q-7 0 -15 -4t-13.5 -11t-5.5 -15v-557q0 -14 9 -27.5t26 -14.5h460q11 0 23 13.5t11 28.5v439q0 5 1.5 10t4 9t7 6t9.5 2q20 0 20 -27v-439q0 -34 -22.5 -58
t-53.5 -24zM566 365q-16 0 -20 4q-3 4 -4.5 7t-1.5 6.5t0.5 6.5t2.5 6.5t5 6.5l254 273q18 19 34 3q13 -15 -4 -32l-254 -274q-2 -2 -5 -4l-5 -2zM461 365h-153q-11 0 -18.5 6t-7.5 17q0 22 26 22h153q26 0 26 -22q-2 -22 -26 -23zM614 191h-306q-25 1 -26 22q0 22 26 22
h306q12 0 19 -5.5t7 -16.5q0 -22 -26 -22z" />
    <glyph glyph-name="uniE698" unicode="&#xe698;" 
d="M512 747q-91 0 -174 -35t-143 -95t-95 -143t-35 -174t35 -174t95 -143t143 -95t174 -35q73 0 141 22.5t123 64t96.5 96.5t64 123t22.5 141q0 185 -131 316t-316 131zM512 -88q-105 0 -194.5 52t-141.5 141.5t-52 194.5q0 45 10.5 88.5t29.5 82t45.5 72t60 60t72 45.5
t82 29.5t88.5 10.5q105 0 194.5 -52t141.5 -141.5t52 -194.5q0 -79 -31 -151t-82.5 -123.5t-123.5 -82.5t-151 -31zM691 360h-119v119q0 12 -9 21t-21 9h-60q-6 0 -11.5 -2.5t-9.5 -6.5t-6.5 -9.5t-2.5 -11.5v-119h-119q-12 0 -21 -9t-9 -21v-60q0 -12 9 -21t21 -9h119v-119
q0 -12 9 -21t21 -9h60q8 0 15 4t11 11t4 15v119h119q12 0 21 9t9 21v60q0 3 -1 6.5t-2.5 6.5t-3.5 5.5t-4.5 4.5t-5.5 3.5t-6.5 2.5t-6.5 1z" />
    <glyph glyph-name="uniE699" unicode="&#xe699;" 
d="M601 -89l-67 67l335 335l-335 335l67 67l402 -402zM61 -22l335 335l-335 335l67 67l402 -402l-402 -402z" />
    <glyph glyph-name="uniE69A" unicode="&#xe69a;" 
d="M853 277h-318v-318q0 -3 -0.5 -5.5t-2 -5t-3 -4.5t-3.5 -3.5t-4 -2.5t-4.5 -1.5t-5.5 -0.5q-6 0 -11.5 3t-8.5 8t-3 12v318h-318q-10 0 -16.5 7t-6.5 16t6.5 16t16.5 7h318v318q0 5 2 9t5 7t7 5t9 2q9 0 16 -6.5t7 -16.5v-318h318q10 0 16.5 -7t6.5 -16q0 -3 -0.5 -5.5
t-1.5 -4.5t-2.5 -4t-3.5 -3.5t-4.5 -3t-5 -2t-5.5 -0.5z" />
    <glyph glyph-name="uniE6A3" unicode="&#xe6a3;" horiz-adv-x="1025" 
d="M844 503zM942 195h-54q-14 -48 -38 -90l50 -51q16 -15 21.5 -36.5t0 -42.5t-21.5 -37l-29 -29q-16 -15 -37 -21t-42 0t-37 21l-50 51q-42 -24 -90 -37v-53q0 -34 -24 -58t-58 -24h-42q-34 0 -58 24t-24 58v53q-47 13 -90 37l-50 -51q-24 -24 -58 -24t-58 24l-29 29
q-24 24 -24 58t24 58l50 51q-24 42 -38 90h-54q-34 0 -58 24t-24 58v41q0 34 24 58t58 24h54q6 24 15 46.5t21 43.5l-48 48q-16 16 -21.5 37t0 42t21.5 37l29 29q24 24 58 24t58 -24l47 -47q44 25 93 39v55q0 22 11 41t30 30t41 11h42q34 0 58 -24t24 -58v-55
q24 -7 47.5 -17t45.5 -22l47 47q24 24 58 24t58 -24l29 -29q24 -24 24 -58t-24 -58l-48 -48q12 -21 21 -43.5t15 -46.5h54q34 0 58 -24t24 -58v-41q0 -34 -24 -58t-58 -24zM512 522q-94 0 -160 -66t-66 -159.5t66 -160t160 -66.5q61 0 113 30.5t82.5 82.5t30.5 113.5
t-30.5 113.5t-82.5 82t-113 30zM512 196q-28 0 -51.5 14t-37.5 37.5t-14 51.5q0 42 30 72t73 30t73 -30t30 -72q0 -56 -48 -87q-25 -16 -55 -16z" />
    <glyph glyph-name="uniE6A6" unicode="&#xe6a6;" 
d="M644 -105q-25 0 -41 18q-9 9 -22 20t-33 22t-36 11q-23 0 -49.5 -18t-41.5 -34q-16 -18 -41 -18q-6 0 -11 1.5t-10 3.5h-1l-107 60l-1 1q-14 10 -19 27.5t2 33.5q10 23 10 43q0 47 -33 80t-80 33h-4q-5 0 -9 1.5t-8 4t-7 6t-5.5 8t-4.5 10t-3 11.5q-10 48 -10 85
q0 10 1 22.5t2 22.5l4 20q1 10 1.5 14t1.5 6q1 9 4.5 17t8.5 13t11.5 8t12.5 2h4q47 0 80 33.5t33 79.5q0 21 -10 44q-3 8 -3.5 16.5t1.5 17t7 15.5t12 12l2 1l112 62h1q3 2 6.5 3t6.5 1h8q25 0 41 -16q15 -17 41 -34t48 -17t47.5 17t41.5 33q5 5 11.5 8.5t14 5.5t14.5 2h6
q3 0 5.5 -0.5t5 -1.5t4.5 -2l2 -1l108 -60l1 -1q15 -10 20 -27.5t-2 -33.5q-10 -23 -10 -44q0 -15 4 -29.5t11 -27t17.5 -23t23 -17.5t27 -11.5t30.5 -4.5h3q14 1 24.5 -10t13.5 -30q9 -48 9 -85t-9 -85q-3 -19 -13.5 -30t-24.5 -11h-3q-31 0 -57 -15t-41 -41t-15 -57
q0 -20 10 -43q7 -16 2 -33.5t-20 -27.5l-1 -1l-110 -61l-1 -1q-5 -2 -10 -3t-11 -1zM641 -53l3 -1l103 57q-13 33 -13 63q0 66 45 113.5t110 50.5q0 2 0.5 3.5t0.5 4.5l2 6q0 3 0.5 7t1.5 9v8l2 10v8q1 5 1 10v9q0 30 -8 75q-43 2 -78.5 24t-56 59t-20.5 80q0 31 13 64
l-101 56h-1q-2 0 -3 -1q-3 -2 -6.5 -5.5t-12.5 -11.5t-19 -15q-23 -16 -45.5 -24.5t-42.5 -8.5q-41 0 -89 34q-22 16 -37 32l-4 1h-1l-105 -57q3 -6 5.5 -13t5.5 -22t3 -29q0 -43 -20.5 -80t-56.5 -59t-78 -24q-2 -8 -3.5 -17t-3 -27t-1.5 -31q0 -30 8 -75q65 -3 110 -50.5
t45 -113.5q0 -13 -3 -28t-5.5 -22t-5.5 -13l100 -55h2h1l7 6q3 4 12.5 12.5t18.5 15.5q49 35 91 35q14 0 28.5 -4t30 -12t31.5 -20q23 -16 39 -34zM512 155q-41 0 -75.5 20t-54.5 55t-20 75.5t20 75.5t54.5 55t75.5 20q62 0 106 -44t44 -106.5t-44 -106.5t-106 -44zM512 405
q-41 0 -70 -29t-29 -70.5t29 -70.5t70 -29q27 0 50 13.5t36 36.5t13 50q0 41 -29 70t-70 29z" />
    <glyph glyph-name="uniE6B0" unicode="&#xe6b0;" 
d="M959 364h-383v384h-128v-384h-384v-128h384v-383h128v383h383v128z" />
    <glyph glyph-name="uniE6B2" unicode="&#xe6b2;" 
d="M285 582v198q0 13 -9.5 22.5t-23 9.5t-22.5 -9.5t-9 -22.5v-198q-11 -4 -21 -10t-18 -15t-13.5 -19t-8.5 -22t-3 -24q0 -31 17.5 -55.5t46.5 -34.5v-582q0 -9 4 -16t11.5 -11.5t16.5 -4.5q4 0 8 1t7.5 3t6.5 5t5 6.5t3.5 8t1.5 8.5v582q28 10 46 34.5t18 55.5q0 12 -3 24
t-9 22t-14 19t-17.5 15t-20.5 10zM253 444q-20 0 -34 14t-14 34t14 34t34 14t34 -14t14 -34q0 -8 -2.5 -15t-7 -13t-10.5 -10.5t-13.5 -7t-14.5 -2.5zM544 182v598q0 13 -9.5 22.5t-22.5 9.5t-22.5 -9.5t-9.5 -22.5v-598q-28 -10 -46 -34.5t-18 -55.5t18 -55.5t46 -34.5
v-182q0 -13 9.5 -22.5t22.5 -9.5t22.5 9.5t9.5 22.5v182q28 10 46 34.5t18 55.5t-18 55.5t-46 34.5zM512 44q-20 0 -34 14t-14 34t14 34t34 14t34 -14t14 -34t-14 -34t-34 -14zM867 412q0 10 -2 20t-6 19t-9.5 17t-13 14.5t-15.5 11.5t-18 8v278q0 13 -9 22.5t-22.5 9.5
t-23 -9.5t-9.5 -22.5v-278q-28 -10 -46 -34.5t-18 -55.5q0 -10 2.5 -20t6.5 -19t9.5 -17t12.5 -14.5t15.5 -11.5t17.5 -8v-502q0 -13 9.5 -22.5t23 -9.5t22.5 9.5t9 22.5v502q19 6 33.5 19.5t22.5 31.5t8 39zM771 364q-20 0 -34 14t-14 34q0 13 6.5 24t17.5 17.5t24 6.5
q20 0 34 -14t14 -34q0 -13 -6.5 -24t-17.5 -17.5t-24 -6.5z" />
    <glyph glyph-name="uniE6B6" unicode="&#xe6b6;" 
d="M512 727q-87 0 -166 -34t-136 -91t-91 -136t-34 -166q0 -116 57.5 -214t155.5 -155.5t214 -57.5q87 0 166 34t136 91t91 136t34 166q0 116 -57.5 214t-155.5 155.5t-214 57.5zM761 416l-292 -284q-8 -7 -18 -7q-11 1 -18 8l-114 113q-7 8 -7 18.5t7.5 18t18 7.5t17.5 -7
l96 -96l274 265q5 5 12 6.5t13.5 0t11.5 -6.5q7 -8 7 -18.5t-8 -17.5z" />
    <glyph glyph-name="uniE6B9" unicode="&#xe6b9;" 
d="M512 480q-80 0 -136 -56t-56 -136t56 -136t136 -56t136 56t56 136t-56 136t-136 56zM512 160q-53 0 -90.5 37.5t-37.5 90.5t37.5 90.5t90.5 37.5t90.5 -37.5t37.5 -90.5t-37.5 -90.5t-90.5 -37.5zM960 384h-76q-14 52 -41 99l54 54q19 19 18.5 45.5t-18.5 44.5l-46 46
q-12 12 -28.5 16.5t-33 0t-28.5 -16.5l-54 -54q-15 9 -31 16.5t-33.5 13.5t-34.5 11v76q0 27 -18.5 45.5t-45.5 18.5h-64q-27 0 -45.5 -18.5t-18.5 -45.5v-76q-52 -14 -99 -41l-54 54q-12 12 -28.5 16.5t-33 0t-28.5 -16.5l-46 -46q-19 -19 -18.5 -45t18.5 -45l54 -54
q-9 -15 -16.5 -31t-13.5 -33t-11 -35h-76q-27 0 -45.5 -18.5t-18.5 -45.5v-64q0 -27 18.5 -45.5t45.5 -18.5h76q14 -52 41 -99l-54 -54q-19 -19 -18.5 -45.5t18.5 -44.5l46 -46q19 -19 45 -19t45 19l54 54q47 -27 99 -41v-76q0 -27 18.5 -45.5t45.5 -18.5h64q18 0 32.5 8.5
t23 23.5t8.5 32v76q52 14 99 41l54 -54q19 -19 45.5 -18.5t44.5 18.5l46 46q19 19 19 45t-19 45l-54 54q27 47 41 99h76q27 0 45.5 18.5t18.5 45.5v64q0 27 -18.5 45.5t-45.5 18.5zM960 256h-130q-4 -48 -22.5 -91t-47.5 -79l91 -92l-45 -45l-92 91q-36 -29 -79 -47.5
t-91 -22.5v-130h-64v130q-96 9 -170 70l-92 -91l-45 45l91 92q-61 74 -70 170h-130v64h130q9 96 70 170l-91 92l45 45l92 -91q36 29 79 47.5t91 22.5v130h64v-130q96 -9 170 -70l92 91l45 -45l-91 -92q61 -74 70 -170h130v-64z" />
    <glyph glyph-name="uniE6BB" unicode="&#xe6bb;" 
d="M512 806q-75 0 -144 -30t-118.5 -81t-79 -121t-29.5 -148q0 -58 38.5 -145t92.5 -168.5t109 -155t92.5 -118.5t38.5 -45q15 17 40 47t89 114t113 159.5t89 164.5t40 147q0 62 -18.5 120t-53 104.5t-80 82t-102.5 54.5t-117 19zM512 268q-77 0 -131 56t-54 134.5t54 134
t131 55.5q38 0 72 -15t59 -40.5t39.5 -60.5t14.5 -74q0 -51 -24.5 -95t-67.5 -69.5t-93 -25.5z" />
    <glyph glyph-name="uniE6BD" unicode="&#xe6bd;" 
d="M955 374h-44q-15 0 -29.5 10.5t-18.5 24.5l-26 62q-7 13 -4.5 30.5t13.5 28.5l32 31q4 4 6.5 9.5t3.5 11t0 11t-3.5 11t-6.5 9.5l-53 52q-7 8 -16.5 10.5t-19 0t-16.5 -10.5l-31 -31q-5 -4 -10.5 -7t-11.5 -5t-12.5 -2t-13 1.5t-11.5 3.5l-62 26q-9 3 -17.5 10.5
t-13 17.5t-4.5 20v44q0 8 -3 14.5t-8 11.5t-12 8t-14 3h-74q-15 0 -26 -11t-11 -26v-44q0 -16 -10.5 -30t-24.5 -18l-62 -26q-13 -7 -30.5 -4.5t-28.5 13.5l-31 32q-11 10 -26 10t-26 -10l-52 -53q-8 -7 -10.5 -16.5t0 -19t10.5 -16.5l31 -31q11 -11 13.5 -28.5t-4.5 -30.5
l-26 -62q-4 -14 -18.5 -24.5t-29.5 -10.5h-44q-15 0 -26 -11t-11 -26v-74q0 -15 11 -26t26 -11h44q8 0 15.5 -2.5t14 -7.5t11.5 -11.5t7 -13.5l26 -62q7 -13 4.5 -30.5t-13.5 -28.5l-32 -31q-10 -11 -10 -26.5t10 -25.5l53 -53q7 -7 16.5 -9.5t19 0t16.5 9.5l31 32
q11 11 28.5 13.5t30.5 -5.5l62 -25q9 -3 17.5 -10.5t13 -17.5t4.5 -20v-44q0 -7 3 -14t8 -12t12 -8t14 -3h74q15 0 26 11t11 26v44q0 15 10.5 29.5t24.5 18.5l62 25q13 8 30.5 5.5t28.5 -13.5l31 -32q11 -10 26 -10t26 10l53 53q10 11 10 26t-10 26l-32 31
q-11 11 -13.5 28.5t4.5 30.5l26 62q3 9 10.5 17.5t17.5 13t20 4.5h44q15 0 26 11t11 26v74q0 15 -11 26t-26 11zM697 300q0 -50 -25 -92.5t-67.5 -67.5t-92.5 -25q-37 0 -71.5 15t-59 39.5t-39.5 58.5t-15 72q0 50 25 92.5t67.5 67.5t92.5 25t92.5 -25t67.5 -67.5t25 -92.5z
" />
    <glyph glyph-name="uniE6C2" unicode="&#xe6c2;" 
d="M511.5 812q-104.5 0 -199 -40.5t-163 -109t-109 -163t-40.5 -199t40.5 -199t109 -163t163 -109t199 -40.5t199 40.5t163 109t109 163t40.5 199t-40.5 199t-109 163t-163 109t-199 40.5zM511 -126q-115 0 -213.5 57t-155.5 155.5t-57 214t57 214t155.5 155.5t213.5 57
q87 0 166 -34t136 -91t91 -136t34 -165.5t-34 -165.5t-91 -136t-136 -91t-166 -34zM539 502q-6 6 -13 9t-14.5 3t-15 -3t-13.5 -9l-258 -261q-8 -8 -10.5 -18t0 -20t10.5 -18q11 -12 27.5 -12t27.5 12l231 233l231 -233q12 -12 28 -12t27.5 12t11.5 28t-11 28z" />
    <glyph glyph-name="uniE6C3" unicode="&#xe6c3;" 
d="M768 364h-256v256q0 13 -9.5 22.5t-22.5 9.5t-22.5 -9.5t-9.5 -22.5v-256h-256q-13 0 -22.5 -9.5t-9.5 -22.5t9.5 -22.5t22.5 -9.5h256v-256q0 -13 9.5 -22.5t22.5 -9.5t22.5 9.5t9.5 22.5v256h256q13 0 22.5 9.5t9.5 22.5t-9.5 22.5t-22.5 9.5zM480 812
q-98 0 -186.5 -38t-153 -102.5t-102.5 -153t-38 -186.5t38 -186.5t102.5 -153t153 -102.5t186.5 -38t186.5 38t153 102.5t102.5 153t38 186.5t-38 186.5t-102.5 153t-153 102.5t-186.5 38zM480 -84q-172 0 -294 122t-122 294t122 294t294 122t294 -122t122 -294t-122 -294
t-294 -122z" />
    <glyph glyph-name="uniE6C7" unicode="&#xe6c7;" 
d="M525 343l44 406q7 1 18 0.5t44.5 -5.5t65 -15.5t72.5 -34.5t74.5 -57.5t64.5 -89t47 -125.5zM495 712q-119 0 -222 -62t-159 -171q-40 -77 -46.5 -163.5t18.5 -164t80.5 -144t133 -106.5t164 -46.5t164 18.5t144 80.5t106.5 132.5q65 127 41 268l-472 -87zM495 712z" />
    <glyph glyph-name="uniE6CA" unicode="&#xe6ca;" 
d="M512 748q-73 0 -141.5 -22.5t-123.5 -64t-96.5 -96.5t-64 -123.5t-22.5 -141.5q0 -91 35.5 -174t95.5 -143t143 -95.5t174 -35.5t174 35.5t143 95.5t95.5 143t35.5 174t-35.5 174t-95.5 143t-143 95.5t-174 35.5zM717 255h-160v-160q0 -12 -6 -22t-16.5 -16t-22.5 -6
q-4 0 -7.5 0.5t-6.5 1.5t-6.5 2.5t-6 3.5t-5 4.5t-4.5 5.5t-3.5 6t-3 6.5t-2 7t-0.5 6.5v160h-160q-18 0 -31.5 13.5t-13.5 31.5q0 9 4 17.5t10 14.5t14 9.5t17 3.5h160v160q0 18 13 31.5t32 13.5q12 0 22.5 -6t16.5 -16.5t6 -22.5v-160h160q18 0 31.5 -13t13.5 -32
q0 -9 -4 -17.5t-10 -14.5t-14 -9.5t-17 -3.5z" />
    <glyph glyph-name="uniE6CB" unicode="&#xe6cb;" 
d="M512 812q-104 0 -199 -40.5t-163.5 -109t-109 -163.5t-40.5 -199t40.5 -199t109 -163.5t163.5 -109t199 -40.5q83 0 161.5 26t141.5 73t110 110t73 141.5t26 161.5q0 104 -40.5 199t-109 163.5t-163.5 109t-199 40.5zM671 277l-272 -272q-10 -9 -23 -9t-22.5 9.5
t-9.5 22.5t9 23l250 249l-250 249q-9 10 -9 23t9.5 22.5t22.5 9.5t23 -9l272 -272q9 -10 9 -23q0 -6 -2.5 -12t-6.5 -11z" />
    <glyph glyph-name="uniE6CC" unicode="&#xe6cc;" 
d="M512 812q-104 0 -199 -40.5t-163.5 -109t-109 -163.5t-40.5 -199t40.5 -199t109 -163.5t163.5 -109t199 -40.5q83 0 161.5 26t141.5 73t110 110t73 141.5t26 161.5q0 104 -40.5 199t-109 163.5t-163.5 109t-199 40.5zM670.5 6.5q-9.5 -9.5 -22.5 -9.5t-23 9l-267 267
q-2 2 -4.5 4t-3.5 5l-4 6q-1 3 -1.5 6t-0.5 6q0 13 10 23l4 4l267 267q7 6 15 8t16 0t14 -8q3 -3 5.5 -7t3.5 -8t1 -8t-1 -8t-3 -7.5t-5 -6.5l-249 -249l249 -249q9 -9 9 -22t-9.5 -22.5z" />
    <glyph glyph-name="uniE6CD" unicode="&#xe6cd;" 
d="M512 812q-139 0 -257 -68.5t-186.5 -186.5t-68.5 -257t68.5 -257t186.5 -186.5t257 -68.5t257 68.5t186.5 186.5t68.5 257t-68.5 257t-186.5 186.5t-257 68.5zM800 268h-256v-256q0 -14 -9.5 -23t-22.5 -9t-22.5 9t-9.5 23v256h-256q-5 0 -9 1t-7.5 3t-6.5 5t-5 6.5t-3 8
t-1 8.5q0 9 4 16t11.5 11.5t16.5 4.5h256v256q0 14 9.5 23t22.5 9q9 0 16 -4t11.5 -11.5t4.5 -16.5v-256h256q14 0 23 -9.5t9 -22.5t-9 -22.5t-23 -9.5z" />
    <glyph glyph-name="uniE6CF" unicode="&#xe6cf;" 
d="M368 300q-1 -22 14 -37l192 -192q14 -14 33.5 -14t34 14t14.5 33.5t-14 33.5l-162 162l162 162q9 9 12 21t0 24.5t-12 21.5q-14 14 -34 14t-34 -14l-192 -192q-15 -15 -14 -37zM551 300zM512 747q61 0 118.5 -16t106.5 -45t90.5 -70.5t70.5 -90.5t45 -106.5t16 -118.5
q0 -73 -22.5 -141t-64 -123t-96.5 -96.5t-123 -64t-141 -22.5t-141 22.5t-123 64t-96.5 96.5t-64 123t-22.5 141q0 91 35.5 173.5t95.5 142.5t142.5 95.5t173.5 35.5zM512 -74q76 0 145 30t119 80t80 119t30 145q0 101 -50 187.5t-136.5 136.5t-187.5 50t-187.5 -50
t-136.5 -136.5t-50 -187.5t50 -187.5t136.5 -136.5t187.5 -50z" />
    <glyph glyph-name="uniE6E1" unicode="&#xe6e1;" 
d="M504 488q-79 0 -135 -56t-56 -135t56 -135t135 -56t135 56t56 135q0 22 -5 43.5t-14.5 40.5t-22.5 35.5t-29.5 29.5t-35.5 22.5t-40.5 14.5t-43.5 5v0zM504 157q-58 0 -99 41t-41 99t41 99t99 41t99 -41t41 -99q0 -29 -11 -55t-30 -44.5t-45 -29.5t-54 -11v0zM925 387
q-4 0 -8.5 1t-10.5 2t-12.5 3t-13.5 5t-13.5 6.5t-12 7.5t-10 9t-6.5 11q-16 33 27 93l13 17l-120 126l-18 -14q-11 -8 -26.5 -16t-37.5 -15t-36 1q-17 8 -24 32t-9 55v25h-95h-95v-25q-2 -30 -9 -54.5t-24 -32.5q-20 -9 -50.5 3t-49.5 27l-18 14l-120 -126l13 -17
q11 -16 18.5 -30.5t12 -32.5t-3.5 -30q-5 -11 -16.5 -20t-25.5 -14t-25 -7.5t-20 -3.5l-23 -2v-77v-94l23 -2q23 -2 50.5 -13t36.5 -32q15 -33 -27 -93l-13 -17l120 -126l18 14q19 15 49.5 27t50.5 3q30 -15 33 -87v-25h95h95v25q3 72 33 87q13 4 26.5 3t29 -8t26.5 -13
t18 -12l18 -14l120 126l-13 17q-43 60 -27 93q9 21 37 32t50 13l23 2v93v78l-23 2v0zM897 308v-49q-32 -7 -62 -23.5t-44 -46.5q-12 -27 -6.5 -58.5t27.5 -68.5l-60 -64q-79 48 -134 23q-12 -6 -22 -16t-17.5 -23t-12.5 -30t-8 -38h-46h-46q-10 83 -60 107q-55 25 -134 -23
l-60 64q45 73 20.5 126.5t-105.5 70.5v48v33q81 17 105.5 70.5t-20.5 126.5l60 64q79 -48 134 -23q25 12 40 39t20 68h46h46q2 -17 5.5 -31t9 -26t12 -21.5t15 -16.5t18.5 -12q14 -6 29.5 -7.5t29.5 0.5t29 7.5t25.5 10.5t20.5 12l60 -64q-45 -73 -21 -127q14 -30 44 -47
t62 -23v-32v0zM897 308z" />
    <glyph glyph-name="uniE6E2" unicode="&#xe6e2;" 
d="M924 582l-113 -113l-110 20l-20 110l113 113q-18 19 -42.5 28t-46.5 8q-15 -1 -35 -6.5t-46.5 -20.5t-47.5 -37q-18 -19 -31.5 -42t-23.5 -52t-9 -63t16 -68q11 -26 -6 -42l-430 -406q-29 -26 -28.5 -65t28.5 -66t67 -27.5t64 27.5q386 412 405 431q8 7 16.5 9.5t14 1
t12.5 -5.5q36 -18 78 -15.5t81 19.5t66 44q59 60 64 130q3 49 -36 88zM182.5 -74.5q-9.5 -9.5 -23 -9.5t-22.5 9.5t-9 23t9.5 22.5t22.5 9t22.5 -9t9.5 -22.5t-9.5 -23z" />
    <glyph glyph-name="uniE6EB" unicode="&#xe6eb;" 
d="M743 655q-96 92 -232 92q-66 0 -126 -24t-106.5 -68.5t-71 -102t-24.5 -119.5q0 -88 46 -162l282 -418l282 418q15 24 25.5 50.5t15.5 54.5t5 56q0 42 -11 82t-32.5 75.5t-52.5 65.5zM511 276q-27 0 -52 8t-45 22.5t-35 34t-23.5 43.5t-8.5 50q0 32 13 61t35 50.5
t52.5 34t63.5 12.5q44 0 82 -21.5t60 -57.5t22 -79q0 -26 -8.5 -50t-23.5 -43.5t-35 -34t-45 -22.5t-52 -8z" />
    <glyph glyph-name="uniE6F2" unicode="&#xe6f2;" 
d="M821 685h-616q-29 0 -55 -11t-45 -30t-30 -45t-11 -55v-504q0 -58 41.5 -99.5t99.5 -41.5h616q59 0 100 41.5t41 99.5v504q0 39 -18.5 71t-51 51t-71.5 19zM692 292l229 229v-457zM205 644h616q35 0 61 -19.5t35 -50.5l-315 -315q-18 -18 -41 -27.5t-48 -9.5
q-52 0 -89 37l-314 315q3 10 8 19.5t11.5 17t15 13.5t18 10.5t20 7t22.5 2.5zM334 292l-228 -228v457zM821 -59h-616q-36 0 -62 20t-34 53l252 252l37 -37q47 -48 115 -48t116 48l37 37l252 -252q-4 -13 -10 -24.5t-15 -20.5t-20 -15.5t-24 -9.5t-28 -3z" />
    <glyph glyph-name="uniE700" unicode="&#xe700;" 
d="M760 -135h-560q-15 0 -29 4.5t-25.5 13t-20.5 20t-13.5 26t-4.5 29.5v622q0 38 27.5 65.5t65.5 27.5h435q13 0 22 -9t9 -22t-9 -22t-22 -9h-435q-13 0 -22 -9.5t-9 -21.5v-622q0 -6 2.5 -12t6.5 -10t10 -6.5t12 -2.5h560q13 0 22 9t9 22v497q0 9 4 16t11 11t16 4
q13 0 22 -9t9 -22v-497q0 -39 -27.5 -66t-65.5 -27v0zM577 362q-4 0 -8 1t-7.5 3t-6.5 5q-6 6 -8 14t0 16t8 14l309 309q4 4 8 6t9 2.5t9.5 0t9 -2.5t8.5 -6q9 -9 9 -22t-9 -22l-309 -309q-9 -9 -22 -9v0zM449 362h-187q-12 0 -21.5 9t-9.5 22q0 6 2.5 12t7 10t10 6.5
t11.5 2.5h187q8 0 15.5 -4t11.5 -11t4 -15.5t-4 -16t-11.5 -11.5t-15.5 -4v0zM635 176h-373q-8 0 -15 4t-11.5 11t-4.5 15.5t4.5 15.5t11.5 11.5t15 4.5h373q13 0 22 -9t9 -22q0 -9 -4 -16t-11 -11t-16 -4v0zM635 176z" />
    <glyph glyph-name="uniE720" unicode="&#xe720;" 
d="M1006 355h-439v439h-110v-439h-439v-110h439v-439h110v439h439v110z" />
    <glyph glyph-name="uniE728" unicode="&#xe728;" 
d="M464 560l-444 -428q-20 -19 -20 -46t20 -46t48 -19t47 19l397 383l397 -383q19 -19 47 -19t48 19t20 46t-20 46l-444 428q-6 6 -12.5 10t-13.5 6t-14.5 3t-15 0t-14.5 -3t-13.5 -6t-12.5 -10z" />
    <glyph glyph-name="uniE748" unicode="&#xe748;" 
d="M675 329h-127v127q0 15 -10.5 25.5t-25.5 10.5t-26 -10.5t-11 -25.5v-127h-127q-10 0 -18 -5t-13 -13.5t-5 -18.5q0 -15 10.5 -25.5t25.5 -10.5h127v-127q0 -10 5 -18.5t13.5 -13.5t18.5 -5t18 5t13 13.5t5 18.5v127h127q10 0 18.5 5t13 13t4.5 18q0 15 -10.5 26
t-25.5 11zM511 747q-92 0 -176 -36t-145 -97t-97 -145t-36 -176.5t36 -176.5t97 -144.5t145 -96.5t176.5 -36t176.5 36t144.5 96.5t96.5 144.5t36 177q0 171 -114 300q-110 125 -273 149q-34 4 -67 5zM511 -105q-80 0 -153.5 31.5t-127 85t-85 127t-31.5 154t31.5 154
t85 127t127 85t154 31.5t154 -31.5t127 -85t85 -127t31.5 -153.5q0 -155 -106 -270q-103 -111 -253 -126q-20 -2 -39 -2zM511 -105z" />
    <glyph glyph-name="uniE755" unicode="&#xe755;" 
d="M962 227h-374v-374h-149v374h-374v149h374v374h149v-374h374v-149zM962 227z" />
    <glyph glyph-name="uniE776" unicode="&#xe776;" 
d="M863 249h-302v-302h-100v302h-302v101h302v302h100v-302h302v-101z" />
    <glyph glyph-name="uniE777" unicode="&#xe777;" 
d="M511.5 754q-92.5 0 -176.5 -36t-145 -97t-97.5 -145t-36.5 -176.5t36.5 -177t97.5 -145.5t145 -97t176.5 -36t177 36t145.5 97t97 145.5t36 177t-36 176.5t-97 145t-145.5 97t-177 36zM511.5 -108q-110.5 0 -204.5 54.5t-148.5 148.5t-54.5 204q0 83 32.5 158.5t87 130
t130 86.5t158.5 32q110 0 204 -54.5t148.5 -148t54.5 -204t-54.5 -204.5t-148.5 -148.5t-204.5 -54.5zM683 332h-139v139q0 6 -5.5 12t-12.5 9t-14 3q-11 0 -21.5 -7.5t-10.5 -16.5v-139h-140q-4 0 -7.5 -2t-6.5 -5.5t-5.5 -7.5t-3.5 -8.5t-1 -8.5q0 -11 7 -21.5t17 -10.5
h140v-140q0 -10 10.5 -17t21.5 -7t21.5 7t10.5 17v140h139q10 0 17 10.5t7 21.5t-7 21.5t-17 10.5z" />
    <glyph glyph-name="uniE779" unicode="&#xe779;" 
d="M921 400h-80q-1 3 -12.5 31.5t-19.5 42.5l57 55q13 13 13 31.5t-13 31.5l-65 64q-13 13 -32 13t-32 -13l-53 -56q-8 4 -19.5 9t-20.5 8.5t-19 7.5l-15 6v80q0 12 -7.5 22.5t-19.5 16.5t-25 6h-90q-13 0 -25 -6t-19.5 -16.5t-7.5 -22.5v-80q-4 -1 -9.5 -3.5t-11.5 -5
t-13 -5t-13.5 -5.5t-13.5 -6t-13 -7l-55 57q-13 13 -31.5 13t-31.5 -13l-64 -64q-13 -14 -13 -32.5t13 -32.5l57 -53q-8 -14 -19.5 -42.5t-12.5 -31.5h-80q-12 0 -22.5 -7.5t-16.5 -19.5t-6 -24v-91q0 -20 13.5 -36t31.5 -16h80q1 -3 12.5 -31.5t19.5 -42.5l-57 -54
q-13 -14 -13 -32.5t13 -31.5l65 -64q8 -9 20 -12t23.5 0.5t20.5 11.5l53 57q14 -8 42.5 -19.5t31.5 -12.5v-80q0 -12 7.5 -22.5t19.5 -16.5t25 -6h90q8 0 15.5 2.5t14 6.5t11.5 9.5t8 12.5t3 14v80q3 1 31.5 12.5t42.5 19.5l55 -56q13 -14 31.5 -14t31.5 14l64 64
q13 13 13 32t-13 32l-57 53q6 11 12.5 25.5t11.5 28.5t8 20h80q18 0 31.5 16t13.5 36v91q0 12 -6 24t-16.5 19.5t-22.5 7.5zM513 99q-85 0 -144.5 60t-59.5 144.5t59.5 144.5t144.5 60q56 0 103 -27.5t74 -74.5t27 -103q0 -21 -4 -41t-11.5 -38.5t-19 -35t-25 -30t-30 -24.5
t-35 -19t-38.5 -12t-41 -4zM513 99z" />
    <glyph glyph-name="uniE77E" unicode="&#xe77e;" 
d="M863 249h-302v-302h-100v302h-302v101h302v302h100v-302h302v-101z" />
    <glyph glyph-name="uniE79A" unicode="&#xe79a;" 
d="M686 379l-174 -174l-174 174q-6 6 -14 6t-14 -6t-6 -14t6 -13l177 -178q11 -10 25 -10q3 0 5.5 0.5t4.5 1.5l6 2q2 1 4.5 2.5t4.5 3.5l177 178q6 5 6 13t-6 14t-14 6t-14 -6zM512 745q-91 0 -173.5 -35t-142 -94.5t-94.5 -142t-35 -173.5t35 -173.5t94.5 -142t142 -94.5
t173.5 -35t173.5 35t142 94.5t94.5 142t35 173.5q0 170 -113 297q-109 122 -271 144q-30 4 -61 4zM512 -106q-110 0 -204 54t-148 148t-54 204t54 204t148 148t204 54q83 0 158 -32t129.5 -86.5t86.5 -129.5t32 -158q0 -158 -106 -274q-104 -114 -257 -130q-22 -2 -43 -2z
" />
    <glyph glyph-name="uniE7A9" unicode="&#xe7a9;" 
d="M896 443h-768q-26 0 -49.5 -10t-41 -27.5t-27.5 -41t-10 -49.5q0 -53 37.5 -90.5t90.5 -37.5h768q53 0 90.5 37.5t37.5 90.5t-37.5 90.5t-90.5 37.5z" />
    <glyph glyph-name="uniE7C2" unicode="&#xe7c2;" 
d="M873 355h-307v308q0 10 -5 19t-14 14t-19.5 5t-19.5 -5t-14 -14t-5 -19v-308h-307q-7 0 -12.5 -2t-10.5 -5.5t-8.5 -8t-5.5 -10.5t-2 -12q0 -16 11.5 -27.5t27.5 -11.5h307v-307q0 -16 11.5 -27.5t27 -11.5t27 11.5t11.5 27.5v307h307q16 0 27.5 11.5t11.5 27.5t-11.5 27
t-27.5 11z" />
    <glyph glyph-name="uniE7D6" unicode="&#xe7d6;" 
d="M514 756q-74 0 -144 -23.5t-126.5 -66t-99 -99t-66 -126.5t-23.5 -145q0 -93 36.5 -178t98 -146.5t146.5 -98t178.5 -36.5t178.5 36.5t146.5 98t98 146.5t36.5 178q0 63 -16.5 122.5t-46.5 109.5t-72 92.5t-92.5 72.5t-110 46.5t-122.5 16.5zM514 -115
q-111 0 -205.5 55.5t-149.5 150t-55 206t55 206t149.5 149.5t206 55t206 -55t149.5 -149.5t55 -206t-55 -206t-149.5 -150t-206.5 -55.5zM688 329h-141v141q0 9 -10.5 16.5t-21.5 7.5q-7 0 -14.5 -3.5t-12.5 -9t-5 -11.5v-141h-142q-9 0 -16.5 -10.5t-7.5 -21.5t7.5 -21.5
t16.5 -10.5h142v-142q0 -6 5 -12t12.5 -9t14.5 -3q11 0 21.5 7.5t10.5 16.5v142h141q9 0 16.5 10.5t7.5 21.5q0 4 -1 8.5t-3.5 8.5t-5.5 7.5t-6.5 5.5t-7.5 2zM688 329z" />
    <glyph glyph-name="uniE838" unicode="&#xe838;" 
d="M887 594h-751q-13 0 -25 -3.5t-22 -10.5t-17.5 -16t-11.5 -20.5t-4 -23.5v-446q0 -30 23.5 -52t56.5 -22h751q33 0 56.5 22t23.5 52v446q0 31 -23.5 52.5t-56.5 21.5v0zM110 74v436l236 -218l-236 -219v1v0zM148 545h727l-364 -336l-363 336v0zM384 257l127 -118l129 118
l225 -208h-705l224 208v0zM678 292h-1l236 218v-436l-235 218v0zM678 292z" />
    <glyph glyph-name="uniE870" unicode="&#xe870;" 
d="M901 408l-50 6q-4 12 -8.5 23.5t-10.5 22.5l31 39q15 19 13 44t-20 43l-58 59q-21 20 -49 20q-22 0 -39 -13l-38 -31q-12 5 -23.5 10t-23.5 9l-5 49q-3 24 -22 40.5t-45 16.5h-83q-25 0 -44.5 -16.5t-21.5 -40.5l-6 -49q-6 -2 -11.5 -4t-11.5 -4l-12 -6q-6 -2 -11 -5
l-39 31q-4 3 -8.5 5.5t-9.5 4t-10 2.5t-10 1q-29 0 -49 -20l-59 -59q-18 -18 -20 -43t13 -44l31 -39q-2 -5 -5 -11t-5.5 -11.5t-4.5 -11.5l-4 -12l-49 -6q-24 -2 -40.5 -21.5t-16.5 -44.5v-83q0 -26 16.5 -45t40.5 -22l49 -5q8 -24 19 -47l-31 -38q-15 -19 -13 -44t20 -44
l59 -58q20 -20 49 -20q22 0 38 13l39 31q11 -6 22.5 -10.5t23.5 -8.5l6 -50q2 -23 21.5 -39.5t44.5 -16.5h83q13 0 24.5 4.5t20.5 12t15 18t7 21.5l5 50q24 8 47 19l38 -31q17 -13 39 -13q28 0 49 20l58 58q18 19 20 44t-13 44l-31 38q11 23 19 47l50 5q6 1 12.5 3t12 6
t10.5 8.5t9 10t6.5 12t4 13.5t1.5 14v83q0 25 -16 44.5t-40 21.5zM927 259q0 -14 -8.5 -24.5t-20.5 -11.5l-70 -8l-3 -9q-9 -31 -25 -60l-5 -9l44 -55q8 -9 6.5 -22.5t-11.5 -23.5l-58 -58q-12 -12 -27 -12q-11 0 -19 7l-55 44l-9 -5q-28 -16 -60 -25l-9 -3l-8 -69
q0 -5 -1.5 -8.5t-4 -6.5t-6 -6t-7.5 -5t-8 -3t-9 -1h-83q-14 0 -24.5 8.5t-11.5 21.5l-7 69l-10 3q-31 9 -60 25l-9 5l-54 -44q-8 -7 -19 -7q-8 0 -15 3t-13 9l-58 58q-5 5 -8 11t-3.5 12.5t1 12.5t5.5 10l44 55l-5 9q-15 28 -25 60l-3 9l-69 8q-12 1 -20.5 11.5t-8.5 24.5
v83q0 7 2 13t6 11t9.5 8t11.5 4l69 7l3 10q10 31 25 60l5 9l-44 54q-4 5 -5.5 11t-1 12t3.5 12.5t8 11.5l58 58q12 11 28 11q11 0 19 -6l54 -44l9 5q29 15 60 25l10 3l7 69q1 12 11.5 20.5t24.5 8.5h83q14 0 24.5 -8.5t11.5 -20.5l8 -69l9 -3q32 -10 60 -25l9 -5l55 44
q8 6 19 6q15 0 27 -11l58 -58q7 -7 10 -15.5t1.5 -16.5t-6.5 -15l-44 -54l5 -9q3 -5 5.5 -9.5t4.5 -9.5l4 -10q2 -5 4 -10.5t4 -10.5t3 -10l3 -10l70 -7q12 -1 20.5 -11.5t8.5 -24.5v-83zM511.5 451q-40.5 0 -75 -20.5t-55 -55t-20.5 -75.5q0 -24 7.5 -47t21.5 -41.5
t32.5 -32.5t41.5 -21.5t48 -7.5q62 0 106 44t44 106q0 41 -20 75.5t-55 55t-75.5 20.5zM511.5 181q-32.5 0 -60 16t-43.5 43.5t-16 59.5q0 50 35 85t84.5 35t84.5 -35t35 -85q0 -32 -16 -59.5t-43.5 -43.5t-60 -16zM512 224z" />
    <glyph glyph-name="uniE894" unicode="&#xe894;" 
d="M559 -144l-356 444l356 450l44 -34l-328 -416l328 -409zM754 -144l-355 444l355 450l44 -34l-327 -416l327 -409z" />
    <glyph glyph-name="uniE89F" unicode="&#xe89f;" 
d="M457 -144l-44 35l327 409l-328 416l45 34l355 -450zM261 -144l-44 35l328 409l-328 416l44 34l356 -450z" />
    <glyph glyph-name="uniE8A1" unicode="&#xe8a1;" 
d="M278 277h218v-219q0 -8 5.5 -13.5t13.5 -5.5q6 0 10 2.5t7 7t3 9.5v219h218q3 0 5.5 0.5t4.5 2t3.5 3t3 3.5t2 4.5t0.5 5.5q0 5 -2.5 9.5t-7 7t-9.5 2.5h-218v219q0 4 -1.5 7.5t-4.5 6t-6.5 4t-7.5 1.5q-8 0 -13.5 -5.5t-5.5 -13.5v-219h-218q-3 0 -5.5 -0.5t-4.5 -2.5
l-4 -2q-2 -2 -3 -4t-1.5 -4.5t-0.5 -5.5q0 -8 5.5 -13.5t13.5 -5.5zM523.5 -173q93.5 0 179 36.5t147.5 98.5t98.5 147.5t36.5 179.5q0 63 -16.5 122.5t-46 110.5t-72.5 93.5t-93.5 72.5t-110.5 46.5t-122 16.5q-94 0 -179.5 -36.5t-147.5 -98.5t-98.5 -147.5t-36.5 -179.5
t36.5 -179.5t98.5 -147.5t147.5 -98.5t179 -36.5zM524 713q69 0 133.5 -21.5t116.5 -61t91 -91.5t60.5 -116.5t21.5 -133.5q0 -162 -109 -283q-106 -118 -262 -137q-26 -3 -52 -3q-115 0 -212.5 56.5t-154.5 154t-57 212.5q0 69 21.5 133.5t60.5 116.5t91.5 91.5t117 61
t133.5 21.5z" />
    <glyph glyph-name="uniE8FE" unicode="&#xe8fe;" 
d="M238 274h557q4 0 8.5 1.5t8 4.5t6 6.5t4 7.5t1.5 9q0 6 -2 11t-6 9t-9.5 6t-10.5 2h-557q-12 0 -20 -8t-8 -20t8 -20.5t20 -8.5zM512 -169q95 0 182 37t150 100t100 150t37 182t-37 182t-100 150t-150 100t-182 37t-182 -37t-150 -100t-100 -150t-37 -182
q0 -194 137.5 -331.5t331.5 -137.5zM512 -112q-112 0 -207 55t-150 150t-55 207q0 84 32.5 160.5t87.5 131.5t131.5 87.5t160.5 32.5q112 0 207 -55t150 -150t55 -207q0 -84 -32.5 -160.5t-87.5 -131.5t-131.5 -87.5t-160.5 -32.5z" />
    <glyph glyph-name="uniE92E" unicode="&#xe92e;" 
d="M886 677h-748q-32 0 -54 -21.5t-22 -52.5v-451q0 -30 22 -52t54 -22h748q20 0 37.5 10t27.5 27t10 37v451q0 31 -22 52.5t-53 21.5v0zM868 624l-299 -260q-39 -34 -57.5 -34t-57.5 34l-299 260h713v0zM118 169v407l233 -201l-233 -206v0zM157 131l234 204l39 -33
q33 -29 82 -29q24 0 44.5 7.5t37.5 21.5l38 33l234 -204h-709v0zM905 169l-233 206l233 201v-407v0zM905 169z" />
    <glyph glyph-name="uniE9C6" unicode="&#xe9c6;" 
d="M498 784q-177 0 -309 -117q-128 -111 -155 -278q-5 -37 -6 -75q0 -95 37.5 -182t100 -150t149.5 -100t182.5 -37t182.5 37t150 100t100 150t37 182.5t-37 182.5t-100 149.5t-150 100t-182 37.5zM780 289h-556q-8 0 -14.5 3.5t-10.5 10t-4 14.5q0 12 8.5 20.5t20.5 8.5
h556q8 0 14.5 -4t10.5 -10.5t4 -14.5q0 -6 -2.5 -11t-6 -9t-9 -6t-11.5 -2z" />
    <glyph glyph-name="uniEB9D" unicode="&#xeb9d;" horiz-adv-x="1025" 
d="M874 557l-362 -362l-361 362h-151l512 -512l512 512h-150z" />
    <glyph glyph-name="uF0002" unicode="&#xf0002;" 
d="M204 473v-562q0 -25 18 -43t43 -18h495q25 0 43 18t18 43v562h-617zM371 -36h-55v399h55v-399zM483 -36h-55v399h55v-399zM595 -36h-55v399h55v-399zM707 -36h-56v399h56v-399zM814 643h-99v51q0 26 -18 44t-43 18h-268q-13 0 -24.5 -5t-19.5 -13t-13 -19.5t-5 -24.5v-51
h-115q-26 0 -44 -18t-18 -44v-50h729v50q0 13 -5 24.5t-13 19.5t-19.5 13t-24.5 5zM660 642h-280v57h280v-57z" />
    <glyph glyph-name="uF0005" unicode="&#xf0005;" 
d="M512 747q-91 0 -173.5 -35.5t-142.5 -95.5t-95.5 -142.5t-35.5 -173.5q0 -73 22.5 -141.5t64 -123.5t96.5 -96t123 -63.5t141 -22.5q91 0 174 35t143 95t95 143t35 174t-35 173.5t-95 142.5t-143 95.5t-174 35.5zM747 144q11 -11 15 -25.5t0 -29t-15 -24.5
q-16 -17 -39 -17t-40 17l-156 156l-156 -156q-16 -17 -39 -17t-39.5 16.5t-16.5 39.5t16 40l156 156l-156 156q-16 16 -16 39t16.5 39.5t39.5 16.5t39 -16l156 -156l156 156q17 16 40 16t39.5 -16.5t16.5 -39.5t-17 -39l-156 -156z" />
    <glyph glyph-name="uF0008" unicode="&#xf0008;" 
d="M896 236h-320v-320h-128v320h-320v128h320v320h128v-320h320v-128z" />
    <glyph glyph-name="uF000A" unicode="&#xf000a;" 
d="M192 267v64q0 14 9.5 23t22.5 9h225v225q0 13 9 22.5t23 9.5h64q13 0 22.5 -9.5t9.5 -22.5v-225h224q9 0 16 -4t11.5 -11.5t4.5 -16.5v-64q0 -4 -1 -8t-3 -7.5t-5 -6.5t-6.5 -5t-8 -3.5t-8.5 -1.5h-224v-224q0 -13 -9.5 -22.5t-22.5 -9.5h-64q-14 0 -23 9.5t-9 22.5v224
h-225q-23 0 -30 23q-2 5 -2 9z" />
    <glyph glyph-name="uF000D" unicode="&#xf000d;" 
d="M710 447h-17v-428h-56v428h-94v-428h-56v428h-94v-428h-56v428h-36h-77v-448q0 -30 22.5 -52t54.5 -22h409q16 0 30 6t24.5 16t16.5 23.5t6 28.5v448q0 1 -9 1t-30.5 -0.5t-37.5 -0.5zM824 581h-168v46q0 13 -13.5 24.5t-30.5 17.5t-31 6h-150q-24 0 -49.5 -14.5
t-25.5 -33.5v-46h-169q-15 0 -26.5 -11t-11.5 -26.5t11.5 -26.5t26.5 -11h637q10 0 19 5t14 14t5 19q0 4 -1 8.5t-3 8t-4.5 7t-6 6t-7 4t-8 2.5t-8.5 1zM581 581h-150v19h150v-19z" />
    <glyph glyph-name="uF000E" unicode="&#xf000e;" 
d="M882 388h-294l1 284v0v5h-1q-2 30 -24.5 51t-53 21t-53 -20.5t-23.5 -50.5h-1v-290h-294q-32 0 -54.5 -22.5t-22 -54.5t23 -55t54.5 -23h293v-298q0 -21 10.5 -39t28.5 -28.5t39 -10.5q32 0 54 22.5t22 54.5l1 299l295 1q32 -1 54.5 21.5t22 54.5t-23 54.5t-54.5 23.5z
" />
    <glyph glyph-name="uF0013" unicode="&#xf0013;" 
d="M122 420q-20 0 -38 -6t-32.5 -17t-25.5 -25.5t-17 -32.5t-6 -37q0 -33 16 -60t43.5 -43t59.5 -16q49 0 83.5 35t34.5 84t-34.5 83.5t-83.5 34.5zM500 420q-19 0 -37.5 -6t-33 -17t-25.5 -25.5t-17 -32.5t-6 -37q0 -33 16 -60t43.5 -43t59.5 -16q49 0 84 35t35 84
t-35 83.5t-84 34.5zM902 420q-49 0 -84 -34.5t-35 -83.5t35 -84t84 -35t83.5 35t34.5 84t-34.5 83.5t-83.5 34.5z" />
    <glyph glyph-name="uF0021" unicode="&#xf0021;" 
d="M704 364h-128v128h-64v-128h-128v-64h128v-128h64v128h128v64zM832 684h-576q-27 0 -45.5 -18.5t-18.5 -45.5v-576q0 -27 18.5 -45.5t45.5 -18.5h576q27 0 45.5 18.5t18.5 45.5v576q0 27 -18.5 45.5t-45.5 18.5zM832 76q0 -13 -9.5 -22.5t-22.5 -9.5h-512
q-13 0 -22.5 9.5t-9.5 22.5v512q0 13 9.5 22.5t22.5 9.5h512q13 0 22.5 -9.5t9.5 -22.5v-512z" />
    <glyph glyph-name="uF0035" unicode="&#xf0035;" horiz-adv-x="1027" 
d="M999 -155q0 3 -1 8.5t-1.5 10t-0.5 8.5q-1 5 -5 43t-7 58q0 7 -4 40.5t-6 50.5q-1 11 -7 54q0 3 -2 6q-4 14 -13.5 17t-20.5 -5q-5 -4 -12 -11q-6 -5 -13 -13l-16 -14q-7 -8 -13 -13q-11 -11 -18.5 -11.5t-20.5 8.5q-5 4 -9.5 8t-10.5 11q-17 16 -75 73.5t-90 89.5
q-3 3 -6.5 5.5t-9.5 5.5q-8 5 -15 5.5t-14 -2t-13 -8.5q-26 -23 -53 -52q-19 -19 -2 -42l6 -8l6 -6q3 -4 7 -8q33 -32 93.5 -92.5t75.5 -74.5q3 -4 6 -7l6 -6q5 -7 5 -13.5t-6 -12.5q-4 -4 -31 -33q-3 -3 -9 -9.5t-10.5 -11.5t-9.5 -9q-12 -14 -8.5 -26t20.5 -16q9 -3 43 -7
q24 -2 94 -10q67 -8 104 -12q17 -2 32 -2q6 -1 13 1q19 3 21 23l1 7v2zM27 753q0 -2 1 -8q1 -12 2 -18q1 -5 5 -43.5t7 -58.5l2 -23q2 -13 3 -22.5t2.5 -22t2.5 -23.5q1 -10 7 -54l2 -6q2 -9 7.5 -13.5t12.5 -4t14 6.5q5 3 12 10t21.5 21t20.5 20q4 4 7.5 6.5t7 4t7.5 0.5
t7.5 -3t9.5 -6q5 -3 10 -8l10 -10q16 -16 74.5 -73.5t90.5 -89.5q3 -3 6.5 -5.5t9.5 -6.5q22 -13 42 5q26 24 53 52q19 20 2 43q-4 5 -8.5 10.5t-10.5 10.5l-53 53q-28 28 -62 61.5t-54 52.5q-3 4 -6 7l-5 5q-4 6 -5.5 10.5t0 9t6.5 9.5q3 3 30 32q3 3 9 9.5t11 11.5l9 9
q3 4 5.5 8t3.5 7.5t0.5 6.5t-2 6t-4 6t-6.5 4.5t-9 3.5q-10 2 -43 6q-14 2 -28 3.5t-37 4t-28 3.5q-8 1 -17.5 2t-17.5 1.5t-17.5 1.5t-17.5 2t-17.5 2t-17.5 2q-3 1 -7 1.5t-9 1t-8 0.5h-15h-1q-2 -1 -3 -1q-10 -1 -16 -7.5t-7 -15.5q0 -1 -1 -8v-2zM27 -156q1 -7 1 -8
q1 -10 7 -16t16 -7q1 -1 3 -1h1h-28v32z" />
    <glyph glyph-name="uF0037" unicode="&#xf0037;" 
d="M706 606h-390q-31 0 -56.5 -15t-40.5 -40.5t-15 -55.5v-390q0 -30 15 -55.5t40.5 -40.5t56.5 -15h390q46 0 78.5 32.5t32.5 78.5v390q0 46 -32.5 78.5t-78.5 32.5zM743 105q0 -15 -11 -26t-26 -11h-390q-10 0 -18.5 5t-13.5 13.5t-5 18.5v390q0 7 2.5 14t7.5 12t12 8
t15 3h390q15 0 26 -11t11 -26v-390zM670 328h-132v133q0 4 -1 7.5t-2 5t-4.5 2t-5.5 1t-7.5 0t-6.5 -0.5q-2 0 -6.5 0.5t-6.5 0t-5 -0.5t-4.5 -1t-3 -3t-2 -4.5t-0.5 -6.5v-133h-131q-5 0 -8 -0.5t-4.5 -2.5t-3 -3t-2 -5t-0.5 -5v-6v-6v-5v-5q0 -1 0.5 -4t0.5 -4t1 -3t2 -3
l4 -2q1 -1 3.5 -1.5t6.5 -0.5h131v-133q0 -4 1 -7.5t2.5 -5t5 -2t5 -1t7 0t7.5 0.5h6q8 -1 11.5 -0.5t6.5 4t3 11.5v133h132q4 0 7 0.5t5 2.5l3 3q1 1 1.5 5t0.5 5v6v6v6v5q0 1 -0.5 4.5t-0.5 4.5l-2 3q-1 2 -3 3t-5 1.5t-6 0.5z" />
    <glyph glyph-name="uF0041" unicode="&#xf0041;" 
d="M222 287.5q0 -31.5 22.5 -54t54.5 -22.5q21 0 38.5 10t28 28t10.5 39t-10.5 38.5t-28 27.5t-38.5 10q-32 0 -54.5 -22.5t-22.5 -54zM436 287.5q0 -31.5 22.5 -54t53.5 -22.5q21 0 39 10t28 28t10 39q0 15 -6 29.5t-16.5 24.5t-24.5 16t-30 6q-31 0 -53.5 -22.5t-22.5 -54
zM649 288q0 -21 10.5 -39t28 -28t38.5 -10t38.5 10t28 28t10.5 39q0 15 -6.5 29.5t-16.5 24.5t-24.5 16t-29.5 6q-21 0 -38.5 -10t-28 -27.5t-10.5 -38.5z" />
    <glyph glyph-name="uF0047" unicode="&#xf0047;" 
d="M969 627l-104 -105q-1 -1 -2.5 -1.5t-2.5 0.5l-99 26l-2 2l-2 2l-26 99v2q0 2 1 3l105 104q-47 14 -96.5 1t-86.5 -49q-36 -37 -49 -87t1 -97l-288 -288q-32 9 -64 7t-63.5 -16.5t-55.5 -38.5q-37 -37 -49.5 -86.5t0.5 -95.5l105 104q0 1 1 1h1q1 1 3 0l99 -26q1 0 2 -1
t1 -3l27 -98q0 -2 -0.5 -3t-1.5 -2l-104 -105q32 -8 64 -6t63 16t55 39q39 38 51 90.5t-5 100.5l282 282q34 -10 67.5 -9t66 15.5t58.5 39.5q24 25 38 56t16 62.5t-6 64.5z" />
    <glyph glyph-name="uF0049" unicode="&#xf0049;" 
d="M512 802q-102 0 -195 -40t-160 -107t-107 -160t-40 -195t40 -195t107 -160t160 -107t195 -40t195 40t160 107t107 160t40 195q0 68 -18 133t-50.5 120t-79 101.5t-101.5 79t-120 50.5t-133 18zM716 279q-199 -123 -313 -191q-6 -3 -12 -3t-11 3t-8 8.5t-3 12.5v382
q0 14 10.5 21t23.5 -1q183 -111 313 -190q11 -7 11 -20.5t-11 -21.5z" />
    <glyph glyph-name="uF0051" unicode="&#xf0051;" 
d="M827 393h-13q-2 8 -4.5 15t-5.5 14t-6.5 14t-7.5 14l10 9q26 27 26 64t-26 63l-3 3q-26 26 -63 26t-63 -26l-11 -11q-28 14 -57 23v15q0 25 -12 45.5t-32.5 32.5t-44.5 12h-4q-24 0 -44.5 -12t-32.5 -32.5t-12 -45.5v-16q-28 -9 -54 -23l-12 12q-26 26 -63 26t-64 -26
l-2 -3q-26 -26 -26 -63t26 -64l11 -11q-14 -26 -23 -55h-17q-18 0 -34.5 -7t-28.5 -19t-19 -28.5t-7 -34.5v-4q0 -37 26 -63t63 -26h15q4 -15 10 -29.5t13 -28.5l-11 -11q-26 -26 -26 -63t26 -63l3 -3q26 -26 63 -26t63 26l10 10q28 -16 58 -25v-13q0 -37 26 -63.5t63 -26.5
h4q37 0 63 26.5t26 63.5v12q31 9 60 25l9 -9q26 -26 63.5 -26t63.5 26l2 3q27 26 27 63t-27 63l-9 9q15 29 24 60h11q37 0 63 26t26 63v4q0 24 -12 44.5t-32.5 32.5t-44.5 12zM514 159q-58 0 -99 41t-41 99t41 99t99 41t99 -41t41 -99q0 -38 -18.5 -70.5t-51 -51
t-70.5 -18.5z" />
    <glyph glyph-name="uF0087" unicode="&#xf0087;" 
d="M512 812q-105 0 -199.5 -40t-163 -108t-109 -162t-40.5 -198.5t40.5 -200t109 -164.5t163.5 -110t199.5 -41t199 41t163 110t109 164.5t40.5 200t-40.5 198.5t-109 162t-163 108t-199.5 40zM511 -136q-119 0 -219.5 59t-158.5 160.5t-58 220.5q0 72 22 138t62 119.5
t93.5 93.5t120.5 61.5t138 21.5q120 0 220.5 -57.5t158.5 -157.5t58 -219q0 -182 -127.5 -311t-309.5 -129zM705 343h-150v151q0 11 -5.5 21t-15.5 15.5t-22 5.5q-17 0 -29.5 -12.5t-12.5 -29.5v-151h-151q-12 0 -22 -6t-15.5 -15.5t-5.5 -21t5.5 -21.5t15.5 -15.5t22 -5.5
h151v-151q0 -18 12.5 -30.5t30 -12.5t30 12.5t12.5 30.5v151h150q12 0 22 5.5t15.5 15.5t5.5 21q0 18 -12.5 30.5t-30.5 12.5z" />
    <glyph glyph-name="uF00B3" unicode="&#xf00b3;" 
d="M887 66q29 -31 43 -56.5t-4 -58.5q-4 -6 -11.5 -15t-15 -17t-15 -14.5t-13.5 -10.5q-25 -15 -60 -8t-62 35l-43 43l-58 57l-67 68l-74 74l-131 -131q-61 -61 -98 -100q-39 -39 -77.5 -48t-68.5 18l-7 7l-11 11l-12 11q-6 7 -7 9q-11 14 -13 29t2.5 29t14 27.5t20.5 24.5
q9 8 33 31l55 57q34 33 75.5 74t86.5 86q-50 49 -94.5 93t-79.5 79t-57.5 57t-27.5 27q-27 27 -27.5 53t17.5 52q9 11 24 24.5t21 17.5q31 21 55.5 18.5t49.5 -28.5l32 -32q23 -23 58 -57t78.5 -76.5t90.5 -88.5q39 39 76.5 76t69.5 69l58 58q26 26 44 43q24 24 53 31.5
t55 -13.5q1 -1 7 -5t11.5 -9t10.5 -9.5t7 -5.5q28 -27 27.5 -58t-27.5 -58q-18 -18 -45.5 -46t-60.5 -60.5t-70 -69.5l-78 -78q38 -37 74.5 -72t67.5 -66t56 -56.5t42 -41.5z" />
    <glyph glyph-name="uF00BB" unicode="&#xf00bb;" 
d="M512 567q-178 0 -365 -190q-53 -54 -85 -99q2 -6 7.5 -16.5t24.5 -41t42 -57.5t61.5 -60.5t82 -57.5t104.5 -40.5t128 -16.5q229 0 378 177q50 60 73 113q-4 6 -12 16.5t-34 40.5t-54 57t-70 60.5t-84 57.5t-94.5 40.5t-102.5 16.5zM512.5 104q-93.5 0 -159.5 51t-66 123
t66 122.5t159.5 50.5t159.5 -50.5t66 -122.5t-66 -123t-159.5 -51zM512 393q-23 0 -43.5 -9t-35.5 -24.5t-24 -37t-9 -44.5q0 -48 33 -82t79.5 -34t79.5 34t33 82t-33 81.5t-80 33.5z" />
    <glyph glyph-name="uF00C5" unicode="&#xf00c5;" 
d="M512 605q-48 0 -95 -10.5t-85 -28t-73.5 -40.5t-63 -48t-51 -50.5t-40 -48.5t-28.5 -41t-18 -28l-5 -10q2 -4 5 -11t14 -28t24.5 -41t36 -47.5t48 -51t61 -48t75 -41.5t90.5 -27.5t105 -10.5q63 0 122.5 16.5t104 43.5t84 59.5t66 65t46 59.5t27.5 44l9 16l-31 53
q-106 159 -258 221q-81 33 -170 33zM513 109q-83 0 -137 54.5t-54 136t54 136.5t137 55t137 -55t54 -136q0 -54 -24.5 -97.5t-68.5 -68.5t-98 -25zM513 414q-47 0 -81 -34t-34 -80.5t34 -80.5t81 -34t81 34t34 80.5t-34 80.5t-81 34z" />
    <glyph glyph-name="uF00CD" unicode="&#xf00cd;" 
d="M959 272v-3q0 -86 -32.5 -162t-89 -132.5t-132.5 -89t-162 -32.5t-162.5 32.5t-133 89t-89 132.5t-32.5 162q0 74 24.5 141t67.5 120.5t102 91t129 53.5v-314q0 -35 7.5 -60.5t25 -40.5t45.5 -22t69 -7zM552 301q-11 0 -25 7t-14 31v370q0 17 8.5 24.5t32.5 7.5
q10 0 41.5 -1.5t75 -11.5t95 -33t102.5 -67q37 -31 56.5 -67t29 -67.5t11 -54.5t1.5 -27q0 -16 -7.5 -27t-26.5 -16q-7 -2 -37 -8t-71 -13.5t-87 -15.5t-86 -15t-68 -11.5t-31 -4.5z" />
    <glyph glyph-name="uF00D5" unicode="&#xf00d5;" 
d="M916 362h-345v343h-119v-343h-344v-121h344v-343h119v343h345v121z" />
    <glyph glyph-name="uF0112" unicode="&#xf0112;" 
d="M747 300q0 -39 27.5 -66.5t66.5 -27.5q19 0 36 7.5t30 20t20 30t7 36.5q0 25 -12.5 47t-34 34.5t-46.5 12.5q-39 0 -66.5 -27.5t-27.5 -66.5zM90 300q0 -8 1 -15.5t3.5 -14.5t5.5 -13.5t7.5 -12t9.5 -11t11 -9.5t12.5 -7.5t13.5 -5.5t14.5 -3.5t14.5 -1.5q39 0 66.5 27.5
t27.5 66.5t-27.5 66.5t-66.5 27.5q-25 0 -46.5 -12.5t-34 -34.5t-12.5 -47zM418 300q0 -25 12.5 -47t34 -34.5t47 -12.5t47.5 12.5t34.5 34.5t12.5 47q0 52 -44 80q-24 14 -50 14t-47.5 -12.5t-34 -34.5t-12.5 -47z" />
    <glyph glyph-name="uF0155" unicode="&#xf0155;" 
d="M827.5 616.5q65.5 -65.5 97.5 -147.5t32 -168t-32 -168t-97.5 -147.5t-147.5 -98t-168 -32.5t-168.5 32.5t-148 98t-98 147.5t-32.5 168t32.5 168t98 147.5t148 97.5t168.5 32t168 -32t147.5 -97.5zM720.5 96.5q21.5 21.5 19 49t-23.5 49.5l-108 107l108 108
q21 21 23.5 48.5t-19 49t-51.5 21.5t-52 -21l-107 -107l-104 105q-22 20 -49.5 22.5t-49.5 -17.5q-21 -22 -21 -52.5t21 -52.5l105 -104l-105 -104q-21 -22 -21 -52t21.5 -51.5t49 -19t49.5 23.5l104 105l107 -108q22 -21 52 -21t51.5 21.5z" />
    <glyph glyph-name="uF016F" unicode="&#xf016f;" 
d="M854 73l-313 309l-314 -309q-14 -15 -32.5 -22t-37.5 -7t-37 7t-32 22q-30 28 -30 68t30 69l377 374q14 14 34 22t40.5 9t39.5 -5t31 -20l383 -380q29 -29 29 -69t-29 -68q-14 -15 -32.5 -22t-37.5 -7t-37 7t-32 22z" />
    <glyph glyph-name="uF0176" unicode="&#xf0176;" horiz-adv-x="1026" 
d="M901 169l-781 3q-25 0 -47.5 8.5t-39 25t-26 39.5t-9.5 53q0 29 9.5 53t26 40.5t39 25.5t47.5 9h781q25 0 47 -9t38 -25.5t26 -40.5t10 -53q0 -30 -10 -53.5t-26 -40.5t-38 -26t-47 -9z" />
    <glyph glyph-name="uF02B4" unicode="&#xf02b4;" 
d="M511 812q-104 0 -198.5 -40.5t-163 -109t-109 -163t-40.5 -198.5q0 -166 98 -301l39 40q-40 57 -61 123t-21 138q0 93 36 177.5t97 145.5t145.5 97t177.5 36t177.5 -36t145.5 -97t97.5 -145.5t36.5 -177.5q0 -75 -23 -144.5t-65.5 -125.5t-98.5 -98.5t-125.5 -65.5
t-144.5 -23q-142 0 -258 81l-35 -43q132 -92 293 -92q104 0 199 40t163.5 108.5t109 163.5t40.5 199t-40.5 198.5t-109 163t-163.5 109t-199 40.5zM493 556v-237h-237v-55h237v-237h55v237h237v55h-237v237h-55z" />
  </font>
</defs>
</svg>
